<?xml version="1.0" encoding="UTF-8" standalone="no"?>
<svg width="740px" height="416px" viewBox="0 0 740 416" version="1.1" xmlns="http://www.w3.org/2000/svg" xmlns:xlink="http://www.w3.org/1999/xlink">
    <!-- Generator: Sketch 40.2 (33826) - http://www.bohemiancoding.com/sketch -->
    <title>build__declaration</title>
    <desc>Created with Sketch.</desc>
    <defs></defs>
    <g id="Page-1" stroke="none" stroke-width="1" fill="none" fill-rule="evenodd">
        <g id="build__declaration" transform="translate(0.000000, -2.000000)">
            <g id="Group">
                <g transform="translate(0.000000, 151.000000)">
                    <g id="popup/" transform="translate(108.000000, 225.000000)" font-size="16" fill="#000000" font-weight="normal">
                        <text>
                            <tspan x="0" y="15">popup/</tspan>
                        </text>
                    </g>
                    <g id="langswitch/" transform="translate(107.000000, 210.000000)" font-size="16" fill="#FF6666" font-weight="normal">
                        <text>
                            <tspan x="0.4" y="15">langswitch/</tspan>
                        </text>
                    </g>
                    <g id="image/" transform="translate(108.000000, 195.000000)" font-size="16" fill="#000000" font-weight="normal">
                        <text>
                            <tspan x="0" y="15">image/</tspan>
                        </text>
                    </g>
                    <g id="icon/" transform="translate(108.000000, 180.000000)" font-size="16" fill="#000000" font-weight="normal">
                        <text>
                            <tspan x="0" y="15">icon/</tspan>
                        </text>
                    </g>
                    <g id="input/" transform="translate(108.000000, 165.000000)" font-size="16" fill="#FF6666" font-weight="normal">
                        <g id="Group">
                            <text id="input/">
                                <tspan x="0.4" y="15">input/</tspan>
                            </text>
                        </g>
                    </g>
                    <g id="button/" transform="translate(108.000000, 150.000000)" font-size="16" fill="#FF6666" font-weight="normal">
                        <g id="Group">
                            <text id="button/">
                                <tspan x="0.4" y="15">button/</tspan>
                            </text>
                        </g>
                    </g>
                    <path d="M74,151.5 L74,235.5 L74,236 L74.5,236 L74.5,235.5 L74.5,151.5 L74.5,151 L74,151 L74,151.5 Z M75.5,236.5 L104.5,236.5 L105,236.5 L105,236 L104.5,236 L75.5,236 L75,236 L75,236.5 L75.5,236.5 Z M75.5,220.5 L104.5,220.5 L105,220.5 L105,220 L104.5,220 L75.5,220 L75,220 L75,220.5 L75.5,220.5 Z M75.5,205.5 L104.5,205.5 L105,205.5 L105,205 L104.5,205 L75.5,205 L75,205 L75,205.5 L75.5,205.5 Z M75.5,190.5 L104.5,190.5 L105,190.5 L105,190 L104.5,190 L75.5,190 L75,190 L75,190.5 L75.5,190.5 Z M75.5,175.5 L104.5,175.5 L105,175.5 L105,175 L104.5,175 L75.5,175 L75,175 L75,175.5 L75.5,175.5 Z M75.5,160.5 L104.5,160.5 L105,160.5 L105,160 L104.5,160 L75.5,160 L75,160 L75,160.5 L75.5,160.5 Z" id="Combined-Shape" stroke="#000000" stroke-linecap="square"></path>
                    <g id="└──lib/" transform="translate(40.000000, 134.000000)">
                        <text id="lib/" fill="#000000" font-size="16" font-weight="normal">
                            <tspan x="49" y="16">lib/</tspan>
                        </text>
                        <path d="M1.5,11.5 L45.5,11.5 L46,11.5 L46,11 L45.5,11 L1.5,11 L1,11 L1,11.5 L1.5,11.5 Z M0,0.5 L0,10.5 L0,11 L0.5,11 L0.5,10.5 L0.5,0.5 L0.5,0 L0,0 L0,0.5 Z" id="Combined-Shape" stroke="#000000" stroke-linecap="square"></path>
                    </g>
                    <g id="link/" transform="translate(109.000000, 120.000000)" font-size="16" fill="#000000" font-weight="normal">
                        <text>
                            <tspan x="0" y="15">link/</tspan>
                        </text>
                    </g>
                    <g id="icon/" transform="translate(109.000000, 105.000000)" font-size="16" fill="#000000" font-weight="normal">
                        <text>
                            <tspan x="0" y="15">icon/</tspan>
                        </text>
                    </g>
                    <g id="logo/" transform="translate(108.000000, 89.000000)" font-size="16" fill="#FF6666" font-weight="normal">
                        <g id="Group">
                            <text id="logo/">
                                <tspan x="0.4" y="15">logo/</tspan>
                            </text>
                        </g>
                    </g>
                    <g id="input/" transform="translate(108.000000, 75.000000)" font-size="16" fill="#FF6666" font-weight="normal">
                        <g id="Group">
                            <text id="input/">
                                <tspan x="0.4" y="15">input/</tspan>
                            </text>
                        </g>
                    </g>
                    <g id="button/" transform="translate(108.000000, 60.000000)" font-size="16" fill="#FF6666" font-weight="normal">
                        <text>
                            <tspan x="0.4" y="15">button/</tspan>
                        </text>
                    </g>
                    <path d="M74,61.4058824 L74,129.594118 L74,130 L74.5,130 L74.5,129.594118 L74.5,61.4058824 L74.5,61 L74,61 L74,61.4058824 Z M75.5,130.5 L104.5,130.5 L105,130.5 L105,130 L104.5,130 L75.5,130 L75,130 L75,130.5 L75.5,130.5 Z M75.5,114.5 L104.5,114.5 L105,114.5 L105,114 L104.5,114 L75.5,114 L75,114 L75,114.5 L75.5,114.5 Z M75.5,99.5 L104.5,99.5 L105,99.5 L105,99 L104.5,99 L75.5,99 L75,99 L75,99.5 L75.5,99.5 Z M75.5,84.5 L104.5,84.5 L105,84.5 L105,84 L104.5,84 L75.5,84 L75,84 L75,84.5 L75.5,84.5 Z M75.5,69.5 L104.5,69.5 L105,69.5 L105,69 L104.5,69 L75.5,69 L75,69 L75,69.5 L75.5,69.5 Z" id="Combined-Shape" stroke="#000000" stroke-linecap="square"></path>
                    <g id="└──blocks/" transform="translate(40.000000, 44.000000)">
                        <text id="blocks/" fill="#000000" font-size="16" font-weight="normal">
                            <tspan x="49" y="16">blocks/</tspan>
                        </text>
                        <path d="M1.5,11.5 L45.5,11.5 L46,11.5 L46,11 L45.5,11 L1.5,11 L1,11 L1,11.5 L1.5,11.5 Z M0,0.5 L0,10.5 L0,11 L0.5,11 L0.5,10.5 L0.5,0.5 L0.5,0 L0,0 L0,0.5 Z" id="Combined-Shape" stroke="#000000" stroke-linecap="square"></path>
                    </g>
                    <g id="project/" transform="translate(1.000000, 29.000000)" font-size="16" fill="#000000" font-weight="normal">
                        <g id="Group">
                            <text id="project/">
                                <tspan x="0" y="15">project/</tspan>
                            </text>
                        </g>
                    </g>
                    <g id="Source-files" font-size="16" fill="#333333" font-weight="bold">
                        <text>
                            <tspan x="0" y="15">Source files</tspan>
                        </text>
                    </g>
                </g>
                <path d="M198,221 L229,221 L229,222 L198,222 L198,221 L198,221 L198,221 Z M234,221.5 L229,224 L229,219 L234,221.5 L234,221.5 L234,221.5 Z M198,236 L229,236 L229,237 L198,237 L198,236 L198,236 L198,236 Z M234,236.5 L229,239 L229,234 L234,236.5 L234,236.5 L234,236.5 Z M198,251 L229,251 L229,252 L198,252 L198,251 L198,251 L198,251 Z M234,251.5 L229,254 L229,249 L234,251.5 L234,251.5 L234,251.5 Z M198,311 L229,311 L229,312 L198,312 L198,311 L198,311 L198,311 Z M234,311.5 L229,314 L229,309 L234,311.5 L234,311.5 L234,311.5 Z M198,326 L229,326 L229,327 L198,327 L198,326 L198,326 L198,326 Z M234,326.5 L229,329 L229,324 L234,326.5 L234,326.5 L234,326.5 Z M198,371 L229,371 L229,372 L198,372 L198,371 L198,371 L198,371 Z M234,371.5 L229,374 L229,369 L234,371.5 L234,371.5 L234,371.5 Z" id="Shape" fill="#FF6666"></path>
                <g id="Declaration" transform="translate(255.000000, 0.000000)" font-size="16" fill="#333333" font-weight="bold">
                    <g id="Group">
                        <text id="Declaration">
                            <tspan x="0.411" y="15">Declaration</tspan>
                        </text>
                    </g>
                </g>
                <path d="M189,128 L187.99,128 C186.34,128 185,123.778 185,118.6 L185,43.4 C185,38.209 186.343,34 187.997,34 L189,34" id="Shape" stroke-opacity="0.8" stroke="#000000"></path>
                <path d="M410,128 L411.01,128 C412.66,128 414,123.778 414,118.6 L414,43.4 C414,38.209 412.657,34 411.003,34 L410,34" id="Shape" stroke-opacity="0.8" stroke="#000000"></path>
                <g transform="translate(199.000000, 32.000000)" font-size="16" font-weight="normal">
                    <g id="];" transform="translate(0.000000, 75.000000)" fill="#000000">
                        <g id="Group">
                            <text id="];">
                                <tspan x="0" y="15">];</tspan>
                            </text>
                        </g>
                    </g>
                    <g id="}" transform="translate(192.000000, 60.000000)" fill="#000000">
                        <g id="Group">
                            <text id="}">
                                <tspan x="0.8" y="15">}</tspan>
                            </text>
                        </g>
                    </g>
                    <g id="&quot;langswitch&quot;" transform="translate(103.000000, 60.000000)" fill="#FF6666">
                        <g id="Group">
                            <text id="&quot;langswitch&quot;">
                                <tspan x="0" y="15">"langswitch"</tspan>
                            </text>
                        </g>
                    </g>
                    <g id=":" transform="translate(92.000000, 60.000000)" fill="#000000">
                        <g id="Group">
                            <text id=":">
                                <tspan x="0" y="15">:</tspan>
                            </text>
                        </g>
                    </g>
                    <g id="&quot;name&quot;" transform="translate(41.000000, 60.000000)" fill="#FF6666">
                        <g id="Group">
                            <text id="&quot;name&quot;">
                                <tspan x="0" y="15">"name"</tspan>
                            </text>
                        </g>
                    </g>
                    <g id="{" transform="translate(26.000000, 60.000000)" fill="#000000">
                        <g id="Group">
                            <text id="{">
                                <tspan x="0" y="15">{</tspan>
                            </text>
                        </g>
                    </g>
                    <g id="}," transform="translate(154.000000, 45.000000)" fill="#000000">
                        <g id="Group">
                            <text id="},">
                                <tspan x="0.8" y="15">},</tspan>
                            </text>
                        </g>
                    </g>
                    <g id="&quot;input&quot;" transform="translate(103.000000, 45.000000)" fill="#FF6666">
                        <g id="Group">
                            <text id="&quot;input&quot;">
                                <tspan x="0" y="15">"input"</tspan>
                            </text>
                        </g>
                    </g>
                    <g id=":" transform="translate(92.000000, 45.000000)" fill="#000000">
                        <g id="Group">
                            <text id=":">
                                <tspan x="0" y="15">:</tspan>
                            </text>
                        </g>
                    </g>
                    <g id="&quot;name&quot;" transform="translate(41.000000, 45.000000)" fill="#FF6666">
                        <g id="Group">
                            <text id="&quot;name&quot;">
                                <tspan x="0" y="15">"name"</tspan>
                            </text>
                        </g>
                    </g>
                    <g id="{" transform="translate(26.000000, 45.000000)" fill="#000000">
                        <g id="Group">
                            <text id="{">
                                <tspan x="0" y="15">{</tspan>
                            </text>
                        </g>
                    </g>
                    <g id="}," transform="translate(150.000000, 30.000000)" fill="#000000">
                        <g id="Group">
                            <text id="},">
                                <tspan x="0.8" y="15">},</tspan>
                            </text>
                        </g>
                    </g>
                    <g id="&quot;logo&quot;" transform="translate(103.000000, 30.000000)" fill="#FF6666">
                        <g id="Group">
                            <text id="&quot;logo&quot;">
                                <tspan x="0" y="15">"logo"</tspan>
                            </text>
                        </g>
                    </g>
                    <g id=":" transform="translate(92.000000, 30.000000)" fill="#000000">
                        <g id="Group">
                            <text id=":">
                                <tspan x="0" y="15">:</tspan>
                            </text>
                        </g>
                    </g>
                    <g id="&quot;name&quot;" transform="translate(41.000000, 30.000000)" fill="#FF6666">
                        <g id="Group">
                            <text id="&quot;name&quot;">
                                <tspan x="0" y="15">"name"</tspan>
                            </text>
                        </g>
                    </g>
                    <g id="{" transform="translate(26.000000, 30.000000)" fill="#000000">
                        <g id="Group">
                            <text id="{">
                                <tspan x="0" y="15">{</tspan>
                            </text>
                        </g>
                    </g>
                    <g id="}," transform="translate(164.000000, 15.000000)" fill="#000000">
                        <g id="Group">
                            <text id="},">
                                <tspan x="0.8" y="15">},</tspan>
                            </text>
                        </g>
                    </g>
                    <g id="&quot;button&quot;" transform="translate(103.000000, 15.000000)" fill="#FF6666">
                        <g id="Group">
                            <text id="&quot;button&quot;">
                                <tspan x="0" y="15">"button"</tspan>
                            </text>
                        </g>
                    </g>
                    <g id=":" transform="translate(92.000000, 15.000000)" fill="#000000">
                        <g id="Group">
                            <text id=":">
                                <tspan x="0" y="15">:</tspan>
                            </text>
                        </g>
                    </g>
                    <g id="&quot;name&quot;" transform="translate(41.000000, 15.000000)" fill="#FF6666">
                        <g id="Group">
                            <text id="&quot;name&quot;">
                                <tspan x="0" y="15">"name"</tspan>
                            </text>
                        </g>
                    </g>
                    <g id="{" transform="translate(26.000000, 15.000000)" fill="#000000">
                        <g id="Group">
                            <text id="{">
                                <tspan x="0" y="15">{</tspan>
                            </text>
                        </g>
                    </g>
                    <g id="=-[" transform="translate(117.000000, 0.000000)" fill="#000000">
                        <g id="Group">
                            <text id="=-[">
                                <tspan x="0" y="15">= [</tspan>
                            </text>
                        </g>
                    </g>
                    <g id="exports.blocks" fill="#008080">
                        <text>
                            <tspan x="0" y="15">exports.blocks</tspan>
                        </text>
                    </g>
                </g>
                <path d="M300,140 L300,171 L299,171 L299,140 L300,140 L300,140 L300,140 Z M299.5,176 L297,171 L302,171 L299.5,176 L299.5,176 L299.5,176 Z" id="Shape" fill="#FF6666"></path>
                <rect id="Rectangle-path" stroke-opacity="0.2" stroke="#000000" fill-opacity="0.05" fill="#000000" x="250" y="187" width="100" height="230" rx="3"></rect>
                <rect id="Rectangle-path" stroke="#FFFFFF" x="250" y="187" width="100" height="230" rx="3"></rect>
                <g id="Build" transform="translate(282.500000, 291.000000)" font-size="16" fill="#333333" font-weight="bold">
                    <g id="Group">
                        <text id="Build">
                            <tspan x="0.434" y="15.541">Build</tspan>
                        </text>
                    </g>
                </g>
                <polygon id="Shape" stroke-opacity="0.1" stroke="#000000" fill="#F6F5F3" points="432 219 739 219 739 396 432 396"></polygon>
                <g transform="translate(443.000000, 229.000000)" font-size="16" font-weight="normal">
                    <g id="@import" fill="#A71D5D">
                        <text>
                            <tspan x="0" y="15">@import</tspan>
                        </text>
                    </g>
                    <g id="“lib/button/button.css”" transform="translate(71.000000, 0.000000)" fill="#183691">
                        <g id="Group">
                            <text id="“lib/button/button.css”">
                                <tspan x="0.4" y="15">“lib/button/button.css”</tspan>
                            </text>
                        </g>
                    </g>
                    <g id=";" transform="translate(216.000000, 0.000000)" fill="#333333">
                        <g id="Group">
                            <text id=";">
                                <tspan x="0.8" y="15">;</tspan>
                            </text>
                        </g>
                    </g>
                    <g id="@import" transform="translate(0.000000, 15.000000)" fill="#A71D5D">
                        <g id="Group">
                            <text id="@import">
                                <tspan x="0" y="15">@import</tspan>
                            </text>
                        </g>
                    </g>
                    <g id="“blocks/button/button.css”" transform="translate(71.000000, 15.000000)" fill="#183691">
                        <g id="Group">
                            <text id="“blocks/button/button.css”">
                                <tspan x="0.4" y="15">“blocks/button/button.css”</tspan>
                            </text>
                        </g>
                    </g>
                    <g id=";" transform="translate(245.000000, 15.000000)" fill="#333333">
                        <g id="Group">
                            <text id=";">
                                <tspan x="0.2" y="15">;</tspan>
                            </text>
                        </g>
                    </g>
                    <g id="@import" transform="translate(0.000000, 45.000000)" fill="#A71D5D">
                        <g id="Group">
                            <text id="@import">
                                <tspan x="0" y="15">@import</tspan>
                            </text>
                        </g>
                    </g>
                    <g id="“lib/input/input.css”" transform="translate(71.000000, 45.000000)" fill="#183691">
                        <g id="Group">
                            <text id="“lib/input/input.css”">
                                <tspan x="0.4" y="15">“lib/input/input.css”</tspan>
                            </text>
                        </g>
                    </g>
                    <g id=";" transform="translate(199.000000, 45.000000)" fill="#333333">
                        <g id="Group">
                            <text id=";">
                                <tspan x="0.2" y="15">;</tspan>
                            </text>
                        </g>
                    </g>
                    <g id="@import" transform="translate(0.000000, 60.000000)" fill="#A71D5D">
                        <g id="Group">
                            <text id="@import">
                                <tspan x="0" y="15">@import</tspan>
                            </text>
                        </g>
                    </g>
                    <g id="“blocks/input/input.css”" transform="translate(71.000000, 60.000000)" fill="#183691">
                        <g id="Group">
                            <text id="“blocks/input/input.css”">
                                <tspan x="0.4" y="15">“blocks/input/input.css”</tspan>
                            </text>
                        </g>
                    </g>
                    <g id=";" transform="translate(226.000000, 60.000000)" fill="#333333">
                        <g id="Group">
                            <text id=";">
                                <tspan x="0.6" y="15">;</tspan>
                            </text>
                        </g>
                    </g>
                    <g id="@import" transform="translate(0.000000, 90.000000)" fill="#A71D5D">
                        <g id="Group">
                            <text id="@import">
                                <tspan x="0" y="15">@import</tspan>
                            </text>
                        </g>
                    </g>
                    <g id="“lib/langswitch/" transform="translate(71.000000, 90.000000)" fill="#183691">
                        <g id="Group">
                            <text id="“lib/langswitch/">
                                <tspan x="0.4" y="15">“lib/langswitch/</tspan>
                            </text>
                        </g>
                    </g>
                    <g id="langswitch.css”" transform="translate(176.000000, 90.000000)" fill="#183691">
                        <g id="Group">
                            <text id="langswitch.css”">
                                <tspan x="0" y="15">langswitch.css”</tspan>
                            </text>
                        </g>
                    </g>
                    <g id=";" transform="translate(277.000000, 89.000000)" fill="#333333">
                        <g id="Group">
                            <text id=";">
                                <tspan x="0" y="15">;</tspan>
                            </text>
                        </g>
                    </g>
                    <g id="@import" transform="translate(0.000000, 120.000000)" fill="#A71D5D">
                        <g id="Group">
                            <text id="@import">
                                <tspan x="0" y="15">@import</tspan>
                            </text>
                        </g>
                    </g>
                    <g id="“blocks/logo/logo.css”" transform="translate(71.000000, 120.000000)" fill="#183691">
                        <g id="Group">
                            <text id="“blocks/logo/logo.css”">
                                <tspan x="0.4" y="15">“blocks/logo/logo.css”</tspan>
                            </text>
                        </g>
                    </g>
                    <g id=";" transform="translate(217.000000, 120.000000)" fill="#333333">
                        <g id="Group">
                            <text id=";">
                                <tspan x="0" y="15">;</tspan>
                            </text>
                        </g>
                    </g>
                </g>
                <g id="project.css" transform="translate(542.000000, 187.000000)" font-size="16" fill="#333333" font-weight="bold">
                    <text>
                        <tspan x="0.411" y="15">project.css</tspan>
                    </text>
                </g>
                <g id="Shape" transform="translate(371.000000, 300.000000)" fill="#FF6666">
                    <path d="M0,2 L31,2 L31,3 L0,3 L0,2 L0,2 L0,2 Z M36,2.5 L31,5 L31,0 L36,2.5 L36,2.5 L36,2.5 Z"></path>
                </g>
            </g>
        </g>
    </g>
</svg>
