<?xml version="1.0" encoding="UTF-8" standalone="no"?>
<!DOCTYPE svg PUBLIC "-//W3C//DTD SVG 1.1//EN" "http://www.w3.org/Graphics/SVG/1.1/DTD/svg11.dtd">
<!-- Generated by Microsoft Visio, SVG Export build__declaration.svg new-page -->
<svg xmlns="http://www.w3.org/2000/svg" xmlns:xlink="http://www.w3.org/1999/xlink" xmlns:ev="http://www.w3.org/2001/xml-events"
		width="11.6929in" height="8.26772in" viewBox="0 0 841.89 595.276" xml:space="preserve" color-interpolation-filters="sRGB"
		class="st21">
	<style type="text/css">
	<![CDATA[
		.st1 {fill:#ffcc00;stroke:none;stroke-linecap:round;stroke-linejoin:round;stroke-width:0.72}
		.st2 {fill:none;marker-end:url(#mrkr13-6);stroke:none;stroke-linecap:butt;stroke-width:1.5}
		.st3 {fill:#ffcc00;fill-opacity:1;stroke:#ffcc00;stroke-opacity:1;stroke-width:0.37313432835821}
		.st4 {fill:#000000;font-family:Yandex Sans Text Light;font-size:1.16666em;font-weight:bold}
		.st5 {stroke:#000000;stroke-linecap:butt;stroke-width:1.5}
		.st6 {fill:#000000;font-family:Yandex Sans Text Light;font-size:1.16666em}
		.st7 {fill:#ff6666;font-family:Yandex Sans Text Light;font-size:1.16666em}
		.st8 {marker-end:url(#mrkr3-142);stroke:#ff6666;stroke-linecap:butt;stroke-width:1.5}
		.st9 {fill:#ff6666;fill-opacity:1;stroke:#ff6666;stroke-opacity:1;stroke-width:0.45454545454545}
		.st10 {fill:#000000;font-family:Yandex Sans Text Light;font-size:1.00001em;font-weight:bold}
		.st11 {fill:#00b050;font-family:Yandex Sans Text Light;font-size:1.16666em}
		.st12 {fill:#000000;font-size:1em}
		.st13 {fill:#ff6666;font-size:1em}
		.st14 {font-size:1em}
		.st15 {stroke:#000000;stroke-linecap:round;stroke-linejoin:round;stroke-width:1.5}
		.st16 {fill:#f6f5f3;stroke:#000000;stroke-linecap:butt;stroke-opacity:0.098;stroke-width:0.75}
		.st17 {fill:#660033;font-family:Yandex Sans Text Light;font-size:1.16666em}
		.st18 {fill:#002060;font-size:1em}
		.st19 {fill:#000000;fill-opacity:0.047;stroke:#000000;stroke-linecap:butt;stroke-opacity:0.2;stroke-width:0.75}
		.st20 {fill:none;stroke:#ffffff;stroke-linecap:butt;stroke-width:0.75}
		.st21 {fill:none;fill-rule:evenodd;font-size:12px;overflow:visible;stroke-linecap:square;stroke-miterlimit:3}
	]]>
	</style>

	<defs id="Patterns_And_Gradients">
		<linearGradient id="grad0-11" x1="0" y1="0" x2="1" y2="0" gradientTransform="rotate(270 0.5 0.5)">
			<stop offset="0" stop-color="#f2f2f2" stop-opacity="1"/>
			<stop offset="1" stop-color="#ffffff" stop-opacity="1"/>
		</linearGradient>
	</defs>
	<defs id="Markers">
		<g id="lend13">
			<path d="M 3 1 L 0 0 L 3 -1 L 3 1 " style="stroke:none"/>
		</g>
		<marker id="mrkr13-6" class="st3" refX="-8.04" orient="auto" markerUnits="strokeWidth" overflow="visible">
			<use xlink:href="#lend13" transform="scale(-2.68,-2.68) "/>
		</marker>
		<g id="lend3">
			<path d="M 2 1 L 0 0 L 2 -1 " style="stroke-linecap:round;stroke-linejoin:round;fill:none"/>
		</g>
		<marker id="mrkr3-142" class="st9" orient="auto" markerUnits="strokeWidth" overflow="visible">
			<use xlink:href="#lend3" transform="scale(-2.2,-2.2) "/>
		</marker>
	</defs>
	<g>
		<title>scheme1</title>
		<g id="shape1-1" transform="translate(172.685,-368.504)">
			<title>Горизонтальная линия выноски.540</title>
			<path d="M0 595.28 L134.31 595.28 L0 595.28 Z" class="st1"/>
		</g>
		<g id="shape4-3" transform="translate(34.8661,-325.984)">
			<title>Text (14).543</title>
			<desc>Source files</desc>
			<rect x="0" y="566.929" width="133.228" height="28.3465" class="st2"/>
			<text x="30.63" y="585.3" class="st4">Source files</text>		</g>
		<g id="shape5-8" transform="translate(732.189,311.811) rotate(90)">
			<title>Line.544</title>
			<path d="M0 595.28 L65.2 595.28" class="st5"/>
		</g>
		<g id="shape6-13" transform="translate(105.732,-277.795)">
			<title>Text (14).543.6</title>
			<desc>blocks/</desc>
			<rect x="0" y="566.929" width="85.0394" height="28.3465" class="st2"/>
			<text x="19.68" y="585.3" class="st6">blocks/</text>		</g>
		<g id="shape7-17" transform="translate(136.913,-274.961)">
			<title>Line.544.7</title>
			<path d="M0 595.28 L14.17 595.28" class="st5"/>
		</g>
		<g id="shape8-21" transform="translate(134.079,-260.787)">
			<title>Text (14).543.8</title>
			<desc>button/</desc>
			<rect x="0" y="566.929" width="85.0394" height="28.3465" class="st2"/>
			<text x="18.45" y="585.3" class="st7">button/</text>		</g>
		<g id="shape9-25" transform="translate(128.409,-246.614)">
			<title>Text (14).543.9</title>
			<desc>input/</desc>
			<rect x="0" y="566.929" width="85.0394" height="28.3465" class="st2"/>
			<text x="23.45" y="585.3" class="st7">input/</text>		</g>
		<g id="shape10-29" transform="translate(125.575,-232.441)">
			<title>Text (14).543.10</title>
			<desc>logo/</desc>
			<rect x="0" y="566.929" width="85.0394" height="28.3465" class="st2"/>
			<text x="25.95" y="585.3" class="st7">logo/</text>		</g>
		<g id="shape11-33" transform="translate(136.913,-260.787)">
			<title>Line.11</title>
			<path d="M0 595.28 L14.17 595.28" class="st5"/>
		</g>
		<g id="shape12-37" transform="translate(136.913,-246.614)">
			<title>Line.12</title>
			<path d="M0 595.28 L14.17 595.28" class="st5"/>
		</g>
		<g id="shape13-41" transform="translate(125.575,-218.268)">
			<title>Text (14).543.13</title>
			<desc>icon/</desc>
			<rect x="0" y="566.929" width="85.0394" height="28.3465" class="st2"/>
			<text x="26.7" y="585.3" class="st6">icon/</text>		</g>
		<g id="shape14-45" transform="translate(122.74,-204.094)">
			<title>Text (14).543.14</title>
			<desc>link/</desc>
			<rect x="0" y="566.929" width="85.0394" height="28.3465" class="st2"/>
			<text x="29.21" y="585.3" class="st6">link/</text>		</g>
		<g id="shape15-49" transform="translate(136.913,-232.441)">
			<title>Line.15</title>
			<path d="M0 595.28 L14.17 595.28" class="st5"/>
		</g>
		<g id="shape16-53" transform="translate(136.913,-218.268)">
			<title>Line.16</title>
			<path d="M0 595.28 L14.17 595.28" class="st5"/>
		</g>
		<g id="shape17-57" transform="translate(49.0394,-294.803)">
			<title>Text (14).17</title>
			<desc>project/</desc>
			<rect x="0" y="566.929" width="85.0394" height="28.3465" class="st2"/>
			<text x="17.68" y="585.3" class="st6">project/</text>		</g>
		<g id="shape18-61" transform="translate(102.898,-291.969)">
			<title>Line.544.18</title>
			<path d="M0 595.28 L19.84 595.28" class="st5"/>
		</g>
		<g id="shape19-65" transform="translate(698.173,291.969) rotate(90)">
			<title>Line.544.19</title>
			<path d="M0 595.28 L11.34 595.28" class="st5"/>
		</g>
		<g id="shape20-69" transform="translate(105.732,-198.425)">
			<title>Line.20</title>
			<path d="M0 595.28 L19.84 595.28" class="st5"/>
		</g>
		<g id="shape21-73" transform="translate(701.008,385.512) rotate(90)">
			<title>Line.21</title>
			<path d="M0 595.28 L11.34 595.28" class="st5"/>
		</g>
		<g id="shape22-77" transform="translate(97.2283,-184.252)">
			<title>Text (14).22</title>
			<desc>lib/</desc>
			<rect x="0" y="566.929" width="85.0394" height="28.3465" class="st2"/>
			<text x="32.48" y="585.3" class="st6">lib/</text>		</g>
		<g id="shape23-81" transform="translate(136.913,-182.835)">
			<title>Line.23</title>
			<path d="M0 595.28 L14.17 595.28" class="st5"/>
		</g>
		<g id="shape24-85" transform="translate(128.409,-154.488)">
			<title>Text (14).24</title>
			<desc>input/</desc>
			<rect x="0" y="566.929" width="85.0394" height="28.3465" class="st2"/>
			<text x="23.45" y="585.3" class="st7">input/</text>		</g>
		<g id="shape25-89" transform="translate(125.575,-140.315)">
			<title>Text (14).25</title>
			<rect x="0" y="566.929" width="85.0394" height="28.3465" class="st2"/>
		</g>
		<g id="shape26-92" transform="translate(136.913,-168.661)">
			<title>Line.26</title>
			<path d="M0 595.28 L14.17 595.28" class="st5"/>
		</g>
		<g id="shape27-96" transform="translate(136.913,-154.488)">
			<title>Line.27</title>
			<path d="M0 595.28 L14.17 595.28" class="st5"/>
		</g>
		<g id="shape28-100" transform="translate(125.575,-141.732)">
			<title>Text (14).28</title>
			<desc>icon/</desc>
			<rect x="0" y="566.929" width="85.0394" height="28.3465" class="st2"/>
			<text x="26.7" y="585.3" class="st6">icon/</text>		</g>
		<g id="shape29-104" transform="translate(145.417,-111.969)">
			<title>Text (14).29</title>
			<desc>langswitch/</desc>
			<rect x="0" y="566.929" width="85.0394" height="28.3465" class="st2"/>
			<text x="6.19" y="585.3" class="st7">langswitch/</text>		</g>
		<g id="shape30-108" transform="translate(136.913,-140.315)">
			<title>Line.30</title>
			<path d="M0 595.28 L14.17 595.28" class="st5"/>
		</g>
		<g id="shape31-112" transform="translate(136.913,-126.142)">
			<title>Line.31</title>
			<path d="M0 595.28 L14.17 595.28" class="st5"/>
		</g>
		<g id="shape32-116" transform="translate(134.079,-170.079)">
			<title>Text (14).32</title>
			<desc>button/</desc>
			<rect x="0" y="566.929" width="85.0394" height="28.3465" class="st2"/>
			<text x="18.45" y="585.3" class="st7">button/</text>		</g>
		<g id="shape33-120" transform="translate(732.189,403.937) rotate(90)">
			<title>Line.33</title>
			<path d="M0 595.28 L77.95 595.28" class="st5"/>
		</g>
		<g id="shape34-124" transform="translate(131.244,-127.559)">
			<title>Text (14).543.34</title>
			<desc>image/</desc>
			<rect x="0" y="566.929" width="85.0394" height="28.3465" class="st2"/>
			<text x="20.32" y="585.3" class="st6">image/</text>		</g>
		<g id="shape35-128" transform="translate(134.079,-99.2126)">
			<title>Text (14).543.35</title>
			<desc>popup/</desc>
			<rect x="0" y="566.929" width="85.0394" height="28.3465" class="st2"/>
			<text x="18.94" y="585.3" class="st6">popup/</text>		</g>
		<g id="shape36-132" transform="translate(136.913,-113.386)">
			<title>Line.36</title>
			<path d="M0 595.28 L14.17 595.28" class="st5"/>
		</g>
		<g id="shape37-136" transform="translate(241.795,-274.961)">
			<title>Basic Arrow 1.545</title>
			<path d="M0 595.28 L51.02 595.28" class="st8"/>
		</g>
		<g id="shape38-143" transform="translate(241.795,-260.787)">
			<title>Basic Arrow 1.38</title>
			<path d="M0 595.28 L51.02 595.28" class="st8"/>
		</g>
		<g id="shape39-149" transform="translate(241.795,-246.614)">
			<title>Basic Arrow 1.39</title>
			<path d="M0 595.28 L51.02 595.28" class="st8"/>
		</g>
		<g id="shape40-155" transform="translate(241.795,-184.252)">
			<title>Basic Arrow 1.40</title>
			<path d="M0 595.28 L51.02 595.28" class="st8"/>
		</g>
		<g id="shape41-161" transform="translate(241.795,-170.079)">
			<title>Basic Arrow 1.41</title>
			<path d="M0 595.28 L51.02 595.28" class="st8"/>
		</g>
		<g id="shape42-167" transform="translate(241.795,-127.559)">
			<title>Basic Arrow 1.42</title>
			<path d="M0 595.28 L51.02 595.28" class="st8"/>
		</g>
		<g id="shape44-173" transform="translate(306.992,-510.236)">
			<title>Text Bold (14).546</title>
			<desc>Declaration</desc>
			<rect x="0" y="566.929" width="85.0394" height="28.3465" class="st2"/>
			<text x="11.76" y="584.7" class="st10">Declaration</text>		</g>
		<g id="shape95-177" transform="translate(243.496,-467.717)">
			<title>Text (14).543.95</title>
			<desc>exports.blocks = [</desc>
			<rect x="0" y="566.929" width="148.535" height="28.3465" class="st2"/>
			<text x="19.78" y="585.3" class="st11">exports.blocks<tspan class="st12"> </tspan><tspan class="st12">= [</tspan></text>		</g>
		<g id="shape96-183" transform="translate(273.618,-416.879)">
			<title>Text (14).543.96</title>
			<desc>{ “name”: “button” }, { “name”: “logo” }, { “name”: “input” }...</desc>
			<rect x="0" y="550.294" width="169.795" height="44.9814" class="st2"/>
			<text x="4" y="551.79" class="st6">{ <tspan class="st13">“name”</tspan>: <tspan class="st13">“button”</tspan> }, <tspan
						x="4" dy="1.2em" class="st14">{ </tspan><tspan class="st13">“name”</tspan>: <tspan class="st13">“logo”</tspan> }, <tspan
						x="4" dy="1.2em" class="st14">{ </tspan><tspan class="st13">“name”</tspan>: <tspan class="st13">“input”</tspan> }, <tspan
						x="4" dy="1.2em" class="st14">{ </tspan><tspan class="st13">“name”</tspan>: <tspan class="st13">“langswitch”</tspan> }</text>		</g>
		<g id="shape113-198" transform="translate(227.368,-382.677)">
			<title>Text (14).543.113</title>
			<desc>];</desc>
			<rect x="0" y="566.929" width="85.0394" height="28.3465" class="st2"/>
			<text x="38.49" y="585.3" class="st6">];</text>		</g>
		<g id="group115-202" transform="translate(-295.654,207.908) rotate(-90)">
			<title>Comment.555</title>
			<g id="shape116-203" transform="translate(52.0022,-63.4961)">
				<title>Sheet.116</title>
				<path d="M14.17 595.28 L0 595.28" class="st15"/>
			</g>
			<g id="shape117-206" transform="translate(595.276,531.78) rotate(90)">
				<title>Sheet.117</title>
				<path d="M6.8 491.27 L3.4 491.27 A3.40157 3.40157 -180 0 0 0 494.67 L0 591.87 A3.40157 3.40157 -180 0 0 3.4 595.28
							 L6.8 595.28" class="st15"/>
			</g>
		</g>
		<g id="group118-209" transform="translate(-146.618,206.304) rotate(-90)">
			<title>Comment.118</title>
			<g id="shape119-210" transform="translate(56.6007,1190.53) rotate(179.557)">
				<title>Sheet.119</title>
				<path d="M8.69 595.28 L0 595.28" class="st15"/>
			</g>
			<g id="shape120-213" transform="translate(595.276,595.276) rotate(90) scale(-1,1)">
				<title>Sheet.120</title>
				<path d="M6.87 491.27 L3.44 491.27 A3.43514 3.43514 -180 0 0 0 494.71 L0 591.84 A3.43514 3.43514 -180 0 0 3.44 595.28
							 L6.87 595.28" class="st15"/>
			</g>
		</g>
		<g id="shape122-216" transform="translate(941.953,226.772) rotate(90)">
			<title>Basic Arrow 1.122</title>
			<path d="M0 595.28 L42.52 595.28" class="st8"/>
		</g>
		<g id="shape125-222" transform="translate(406.205,-198.425)">
			<title>Basic Arrow 1.125</title>
			<path d="M0 595.28 L51.02 595.28" class="st8"/>
		</g>
		<g id="shape126-228" transform="translate(538.016,-325.984)">
			<title>Text (14).126</title>
			<desc>project.css</desc>
			<rect x="0" y="566.929" width="133.228" height="28.3465" class="st2"/>
			<text x="32.4" y="585.3" class="st4">project.css</text>		</g>
		<g id="shape128-232" transform="translate(474.236,-99.2126)">
			<title>Rectangle-25</title>
			<rect x="0" y="396.85" width="311.811" height="198.425" class="st16"/>
		</g>
		<g id="shape129-234" transform="translate(502.583,-184.252)">
			<title>Text (14).129</title>
			<desc>@import “lib/button/button.css”; @import “blocks/button/butto...</desc>
			<rect x="0" y="566.929" width="325.984" height="28.3465" class="st2"/>
			<text x="4" y="509.7" class="st17">@import<tspan class="st12">  </tspan><tspan class="st18">“lib</tspan><tspan
						class="st18">/</tspan><tspan class="st18">button</tspan><tspan class="st18">/</tspan><tspan class="st18">button</tspan><tspan
						class="st18">.</tspan><tspan class="st18">css”</tspan><tspan class="st12">; </tspan><tspan x="4" dy="1.2em"
						class="st14">@</tspan>import<tspan class="st12">  </tspan><tspan class="st18">“blocks</tspan><tspan
						class="st18">/</tspan><tspan class="st18">button</tspan><tspan class="st18">/</tspan><tspan class="st18">button</tspan><tspan
						class="st18">.</tspan><tspan class="st18">css”</tspan><tspan class="st12">;  </tspan><tspan x="4"
						dy="2.4em" class="st14">@</tspan>import<tspan class="st12">  </tspan><tspan class="st18">“lib</tspan><tspan
						class="st18">/</tspan><tspan class="st18">input</tspan><tspan class="st18">/</tspan><tspan class="st18">input</tspan><tspan
						class="st18">.</tspan><tspan class="st18">css”</tspan><tspan class="st12">; </tspan><tspan x="4" dy="1.2em"
						class="st14">@</tspan>import<tspan class="st12">  </tspan><tspan class="st18">“blocks</tspan><tspan
						class="st18">/</tspan><tspan class="st18">input</tspan><tspan class="st18">/</tspan><tspan class="st18">input</tspan><tspan
						class="st18">.</tspan><tspan class="st18">css”</tspan><tspan class="st12">;  </tspan><tspan x="4"
						dy="2.4em" class="st14">@</tspan>import<tspan class="st12"> </tspan><tspan class="st18"> </tspan><tspan
						class="st18">“lib</tspan><tspan class="st18">/</tspan><tspan class="st18">langswitch</tspan><tspan
						class="st18">/</tspan><tspan class="st18">langswitch</tspan><tspan class="st18">.</tspan><tspan
						class="st18">css”</tspan><tspan class="st12">;  </tspan><tspan x="4" dy="2.4em" class="st14">@</tspan>import<tspan
						class="st12">  </tspan><tspan class="st18">“blocks</tspan><tspan class="st18">/</tspan><tspan class="st18">logo</tspan><tspan
						class="st18">/</tspan><tspan class="st18">logo</tspan><tspan class="st18">.</tspan><tspan class="st18">css”</tspan><tspan
						class="st12">;</tspan></text>		</g>
		<g id="group130-298" transform="translate(304.157,-85.0394)">
			<title>Rectangle-22</title>
			<g id="shape131-299">
				<title>path-3</title>
				<path d="M0 592.32 A2.55124 2.95796 -180 0 0 2.55 595.28 L82.49 595.28 A2.55124 2.95796 -180 0 0 85.04 592.32 L85.04
							 371.46 A2.55124 2.95796 -180 0 0 82.49 368.5 L2.55 368.5 A2.55124 2.95796 -180 0 0 -0 371.46 L0 592.32
							 Z" class="st19"/>
			</g>
			<g id="shape132-301">
				<title>Sheet.132</title>
				<path d="M0 592.32 A2.55124 2.95796 -180 0 0 2.55 595.28 L82.49 595.28 A2.55124 2.95796 -180 0 0 85.04 592.32 L85.04
							 371.46 A2.55124 2.95796 -180 0 0 82.49 368.5 L2.55 368.5 A2.55124 2.95796 -180 0 0 -0 371.46 L0 592.32
							 Z" class="st20"/>
			</g>
		</g>
		<g id="shape133-303" transform="translate(304.157,-184.252)">
			<title>Text Bold (14).546.133</title>
			<desc>Build</desc>
			<rect x="0" y="566.929" width="85.0394" height="28.3465" class="st2"/>
			<text x="29.06" y="584.7" class="st10">Build</text>		</g>
	</g>
</svg>
