<?xml version="1.0" encoding="UTF-8" standalone="no"?>
<!DOCTYPE svg PUBLIC "-//W3C//DTD SVG 1.1//EN" "http://www.w3.org/Graphics/SVG/1.1/DTD/svg11.dtd">
<!-- Generated by Microsoft Visio, SVG Export build__levels.svg new-page -->
<svg xmlns="http://www.w3.org/2000/svg" xmlns:xlink="http://www.w3.org/1999/xlink" xmlns:ev="http://www.w3.org/2001/xml-events"
		xmlns:v="http://schemas.microsoft.com/visio/2003/SVGExtensions/" width="11.811in" height="7.28346in"
		viewBox="0 0 850.394 524.409" xml:space="preserve" color-interpolation-filters="sRGB" class="st29">
	<v:documentProperties v:langID="1049" v:metric="true" v:viewMarkup="false">
		<v:userDefs>
			<v:ud v:nameU="msvNoAutoConnect" v:val="VT0(0):26"/>
			<v:ud v:nameU="msvConvertTheme"/>
			<v:ud v:nameU="DocShowPicture" v:prompt="" v:val="VT0(1):26"/>
			<v:ud v:nameU="visTLShowProps" v:prompt="" v:val="VT0(0):26"/>
		</v:userDefs>
	</v:documentProperties>

	<style type="text/css">
	<![CDATA[
		.st1 {fill:#ffcc00;stroke:none;stroke-linecap:round;stroke-linejoin:round;stroke-width:0.72}
		.st2 {fill:none;marker-end:url(#mrkr13-6);stroke:none;stroke-linecap:butt;stroke-width:1.5}
		.st3 {fill:#ffcc00;fill-opacity:1;stroke:#ffcc00;stroke-opacity:1;stroke-width:0.37313432835821}
		.st4 {fill:#000000;font-family:Yandex Sans Text Light;font-size:1.33333em;font-weight:bold}
		.st5 {stroke:#000000;stroke-linecap:butt;stroke-width:1.5}
		.st6 {fill:#ff6666;font-family:Yandex Sans Text Light;font-size:1.33333em}
		.st7 {fill:#000000;font-family:Yandex Sans Text Light;font-size:1.33333em}
		.st8 {fill:#ffffff;marker-end:url(#mrkr13-136);stroke:#bfbfbf;stroke-linecap:butt;stroke-width:1.5}
		.st9 {fill:#bfbfbf;fill-opacity:1;stroke:#bfbfbf;stroke-opacity:1;stroke-width:0.37313432835821}
		.st10 {fill:#ffffff;marker-end:url(#mrkr13-6);stroke:#ffcc00;stroke-linecap:butt;stroke-width:1.5}
		.st11 {fill:#ffffff;marker-end:url(#mrkr13-145);stroke:#000000;stroke-linecap:butt;stroke-width:1.5}
		.st12 {fill:#000000;fill-opacity:1;stroke:#000000;stroke-opacity:1;stroke-width:0.37313432835821}
		.st13 {fill:#ffffff;stroke:#010202;stroke-linecap:butt;stroke-width:1.5}
		.st14 {fill:#202021;stroke:none;stroke-linecap:butt;stroke-width:1.5}
		.st15 {fill:#ffcc09;stroke:#010202;stroke-linecap:butt;stroke-width:1.5}
		.st16 {fill:none}
		.st17 {stroke:#010202;stroke-linecap:round;stroke-linejoin:round;stroke-width:1.5}
		.st18 {fill:#ffcd04;stroke:#010202;stroke-linecap:round;stroke-linejoin:round;stroke-width:1.5}
		.st19 {fill:#ffffff;stroke:none;stroke-linecap:butt;stroke-width:1.5}
		.st20 {fill:#12100b;stroke:none;stroke-linecap:butt;stroke-width:1.5}
		.st21 {fill:#ffcd04;stroke:none;stroke-linecap:butt;stroke-width:1.5}
		.st22 {marker-end:url(#mrkr3-198);stroke:#000000;stroke-linecap:butt;stroke-width:1.5}
		.st23 {fill:#000000;fill-opacity:1;stroke:#000000;stroke-opacity:1;stroke-width:0.45454545454545}
		.st24 {marker-end:url(#mrkr3-205);stroke:#bfbfbf;stroke-linecap:butt;stroke-width:1.5}
		.st25 {fill:#bfbfbf;fill-opacity:1;stroke:#bfbfbf;stroke-opacity:1;stroke-width:0.45454545454545}
		.st26 {marker-end:url(#mrkr3-212);stroke:#ffcc00;stroke-linecap:butt;stroke-width:1.5}
		.st27 {fill:#ffcc00;fill-opacity:1;stroke:#ffcc00;stroke-opacity:1;stroke-width:0.45454545454545}
		.st28 {stroke:#ffc000;stroke-linecap:butt;stroke-width:1.5}
		.st29 {fill:none;fill-rule:evenodd;font-size:12px;overflow:visible;stroke-linecap:square;stroke-miterlimit:3}
	]]>
	</style>

	<defs id="Patterns_And_Gradients">
		<linearGradient id="grad0-11" x1="0" y1="0" x2="1" y2="0" gradientTransform="rotate(270 0.5 0.5)">
			<stop offset="0" stop-color="#f2f2f2" stop-opacity="1"/>
			<stop offset="1" stop-color="#ffffff" stop-opacity="1"/>
		</linearGradient>
		<linearGradient id="grad0-222" x1="0" y1="0" x2="1" y2="0" gradientTransform="rotate(270 0.5 0.5)">
			<stop offset="0" stop-color="#ffce3c" stop-opacity="1"/>
			<stop offset="1" stop-color="#ffc000" stop-opacity="1"/>
		</linearGradient>
	</defs>
	<defs id="Markers">
		<g id="lend13">
			<path d="M 3 1 L 0 0 L 3 -1 L 3 1 " style="stroke:none"/>
		</g>
		<marker id="mrkr13-6" class="st3" v:arrowType="13" v:arrowSize="2" v:setback="8.04" refX="-8.04" orient="auto"
				markerUnits="strokeWidth" overflow="visible">
			<use xlink:href="#lend13" transform="scale(-2.68,-2.68) "/>
		</marker>
		<marker id="mrkr13-136" class="st9" v:arrowType="13" v:arrowSize="2" v:setback="8.04" refX="-8.04" orient="auto"
				markerUnits="strokeWidth" overflow="visible">
			<use xlink:href="#lend13" transform="scale(-2.68,-2.68) "/>
		</marker>
		<marker id="mrkr13-145" class="st12" v:arrowType="13" v:arrowSize="2" v:setback="8.04" refX="-8.04" orient="auto"
				markerUnits="strokeWidth" overflow="visible">
			<use xlink:href="#lend13" transform="scale(-2.68,-2.68) "/>
		</marker>
		<g id="lend3">
			<path d="M 2 1 L 0 0 L 2 -1 " style="stroke-linecap:round;stroke-linejoin:round;fill:none"/>
		</g>
		<marker id="mrkr3-198" class="st23" v:arrowType="3" v:arrowSize="1" orient="auto" markerUnits="strokeWidth"
				overflow="visible">
			<use xlink:href="#lend3" transform="scale(-2.2,-2.2) "/>
		</marker>
		<marker id="mrkr3-205" class="st25" v:arrowType="3" v:arrowSize="1" orient="auto" markerUnits="strokeWidth"
				overflow="visible">
			<use xlink:href="#lend3" transform="scale(-2.2,-2.2) "/>
		</marker>
		<marker id="mrkr3-212" class="st27" v:arrowType="3" v:arrowSize="1" orient="auto" markerUnits="strokeWidth"
				overflow="visible">
			<use xlink:href="#lend3" transform="scale(-2.2,-2.2) "/>
		</marker>
	</defs>
	<g v:mID="4" v:index="2" v:groupContext="foregroundPage">
		<title>scheme1</title>
		<v:pageProperties v:drawingScale="0.0393701" v:pageScale="0.0393701" v:drawingUnits="24" v:shadowOffsetX="8.50394"
				v:shadowOffsetY="-8.50394"/>
		<v:layer v:name="Flowchart" v:index="0"/>
		<v:layer v:name="Connector" v:index="1"/>
		<v:layer v:name="Соединительная линия" v:index="2"/>
		<g id="shape1-1" v:mID="1" v:groupContext="shape" transform="translate(157.803,-411.024)">
			<title>Горизонтальная линия выноски.540</title>
			<path d="M0 524.41 L134.31 524.41 L0 524.41 Z" class="st1"/>
		</g>
		<g id="shape4-3" v:mID="4" v:groupContext="shape" transform="translate(24.2362,-382.677)">
			<title>Text (14).543</title>
			<desc>Source files</desc>
			<v:textBlock v:margins="rect(4,4,4,4)" v:tabSpace="42.5197"/>
			<v:textRect cx="66.6142" cy="510.236" width="133.23" height="28.3465"/>
			<rect x="0" y="496.063" width="133.228" height="28.3465" class="st2"/>
			<text x="25.49" y="515.04" class="st4" v:langID="1033"><v:paragraph v:horizAlign="1"/><v:tabList/>Source files</text>		</g>
		<g id="shape5-8" v:mID="5" v:groupContext="shape" transform="translate(657.78,198.425) rotate(90)">
			<title>Line.544</title>
			<path d="M0 524.41 L8.5 524.41" class="st5"/>
		</g>
		<g id="shape7-13" v:mID="7" v:groupContext="shape" transform="translate(133.37,-317.48)">
			<title>Line.544.7</title>
			<path d="M0 524.41 L14.17 524.41" class="st5"/>
		</g>
		<g id="shape8-17" v:mID="8" v:groupContext="shape" transform="translate(136.164,-306.142)">
			<title>Text (14).543.8</title>
			<desc>button/</desc>
			<v:textBlock v:margins="rect(4,4,4,4)" v:tabSpace="42.5197"/>
			<v:textRect cx="42.5197" cy="514.488" width="85.04" height="19.8425"/>
			<rect x="0" y="504.567" width="85.0394" height="19.8425" class="st2"/>
			<text x="15.01" y="519.29" class="st6" v:langID="1033"><v:paragraph v:horizAlign="1"/><v:tabList/>button/</text>		</g>
		<g id="shape11-21" v:mID="11" v:groupContext="shape" transform="translate(168.358,-302.598)">
			<title>Line.11</title>
			<path d="M0 524.41 L14.17 524.41" class="st5"/>
		</g>
		<g id="shape17-25" v:mID="17" v:groupContext="shape" transform="translate(34.8661,-354.331)">
			<title>Text (14).17</title>
			<desc>project/</desc>
			<v:textBlock v:margins="rect(4,4,4,4)" v:tabSpace="42.5197"/>
			<v:textRect cx="42.5197" cy="514.488" width="85.04" height="19.8425"/>
			<rect x="0" y="504.567" width="85.0394" height="19.8425" class="st2"/>
			<text x="14.14" y="519.29" class="st7" v:langID="1033"><v:paragraph v:horizAlign="1"/><v:tabList/>project/</text>		</g>
		<g id="shape18-29" v:mID="18" v:groupContext="shape" transform="translate(88.0157,-340.157)">
			<title>Line.544.18</title>
			<path d="M0 524.41 L19.84 524.41" class="st5"/>
		</g>
		<g id="shape19-33" v:mID="19" v:groupContext="shape" transform="translate(612.425,172.913) rotate(90)">
			<title>Line.544.19</title>
			<path d="M0 524.41 L11.34 524.41" class="st5"/>
		</g>
		<g id="shape43-37" v:mID="43" v:groupContext="shape" transform="translate(692.767,216.85) rotate(90)">
			<title>Line.43</title>
			<path d="M0 524.41 L19.62 524.41" class="st5"/>
		</g>
		<g id="shape44-41" v:mID="44" v:groupContext="shape" transform="translate(175.89,-283.465)">
			<title>Text (14).44</title>
			<desc>button.js</desc>
			<v:textBlock v:margins="rect(4,4,4,4)" v:tabSpace="42.5197"/>
			<v:textRect cx="42.5197" cy="519.449" width="85.04" height="9.92126"/>
			<rect x="0" y="514.488" width="85.0394" height="9.92126" class="st2"/>
			<text x="10.34" y="524.25" class="st6" v:langID="1033"><v:paragraph v:horizAlign="1"/><v:tabList/>button.js</text>		</g>
		<g id="shape45-45" v:mID="45" v:groupContext="shape" transform="translate(182.051,-297.638)">
			<title>Text (14).45</title>
			<desc>button.css</desc>
			<v:textBlock v:margins="rect(4,4,4,4)" v:tabSpace="42.5197"/>
			<v:textRect cx="42.5197" cy="519.449" width="85.04" height="9.92126"/>
			<rect x="0" y="514.488" width="85.0394" height="9.92126" class="st2"/>
			<text x="4.38" y="524.25" class="st6" v:langID="1033"><v:paragraph v:horizAlign="1"/><v:tabList/>button.css</text>		</g>
		<g id="shape48-49" v:mID="48" v:groupContext="shape" transform="translate(168.358,-287.94)">
			<title>Line.48</title>
			<path d="M0 524.41 L14.17 524.41" class="st5"/>
		</g>
		<g id="shape49-53" v:mID="49" v:groupContext="shape" transform="translate(657.959,273.133) rotate(90)">
			<title>Line.49</title>
			<path d="M0 524.41 L18.35 524.41" class="st5"/>
		</g>
		<g id="shape51-57" v:mID="51" v:groupContext="shape" transform="translate(133.549,-232.926)">
			<title>Line.51</title>
			<path d="M0 524.41 L14.17 524.41" class="st5"/>
		</g>
		<g id="shape52-61" v:mID="52" v:groupContext="shape" transform="translate(136.343,-221.587)">
			<title>Text (14).52</title>
			<desc>button/</desc>
			<v:textBlock v:margins="rect(4,4,4,4)" v:tabSpace="42.5197"/>
			<v:textRect cx="42.5197" cy="514.488" width="85.04" height="19.8425"/>
			<rect x="0" y="504.567" width="85.0394" height="19.8425" class="st2"/>
			<text x="15.01" y="519.29" class="st6" v:langID="1033"><v:paragraph v:horizAlign="1"/><v:tabList/>button/</text>		</g>
		<g id="shape53-65" v:mID="53" v:groupContext="shape" transform="translate(168.537,-218.044)">
			<title>Line.53</title>
			<path d="M0 524.41 L14.17 524.41" class="st5"/>
		</g>
		<g id="shape54-69" v:mID="54" v:groupContext="shape" transform="translate(85.1811,-255.118)">
			<title>Line.54</title>
			<path d="M0 524.41 L19.84 524.41" class="st5"/>
		</g>
		<g id="shape55-73" v:mID="55" v:groupContext="shape" transform="translate(609.591,255.118) rotate(90)">
			<title>Line.55</title>
			<path d="M0 524.41 L14.17 524.41" class="st5"/>
		</g>
		<g id="shape56-77" v:mID="56" v:groupContext="shape" transform="translate(692.946,301.405) rotate(90)">
			<title>Line.56</title>
			<path d="M0 524.41 L19.62 524.41" class="st5"/>
		</g>
		<g id="shape57-81" v:mID="57" v:groupContext="shape" transform="translate(176.069,-198.425)">
			<title>Text (14).57</title>
			<desc>button.js</desc>
			<v:textBlock v:margins="rect(4,4,4,4)" v:tabSpace="42.5197"/>
			<v:textRect cx="42.5197" cy="519.449" width="85.04" height="9.92126"/>
			<rect x="0" y="514.488" width="85.0394" height="9.92126" class="st2"/>
			<text x="10.34" y="524.25" class="st6" v:langID="1033"><v:paragraph v:horizAlign="1"/><v:tabList/>button.js</text>		</g>
		<g id="shape58-85" v:mID="58" v:groupContext="shape" transform="translate(182.23,-213.083)">
			<title>Text (14).58</title>
			<desc>button.css</desc>
			<v:textBlock v:margins="rect(4,4,4,4)" v:tabSpace="42.5197"/>
			<v:textRect cx="42.5197" cy="519.449" width="85.04" height="9.92126"/>
			<rect x="0" y="514.488" width="85.0394" height="9.92126" class="st2"/>
			<text x="4.38" y="524.25" class="st6" v:langID="1033"><v:paragraph v:horizAlign="1"/><v:tabList/>button.css</text>		</g>
		<g id="shape59-89" v:mID="59" v:groupContext="shape" transform="translate(168.537,-203.386)">
			<title>Line.59</title>
			<path d="M0 524.41 L14.17 524.41" class="st5"/>
		</g>
		<g id="shape60-93" v:mID="60" v:groupContext="shape" transform="translate(657.78,358.806) rotate(90)">
			<title>Line.60</title>
			<path d="M0 524.41 L18.2 524.41" class="st5"/>
		</g>
		<g id="shape62-97" v:mID="62" v:groupContext="shape" transform="translate(133.37,-147.402)">
			<title>Line.62</title>
			<path d="M0 524.41 L14.17 524.41" class="st5"/>
		</g>
		<g id="shape63-101" v:mID="63" v:groupContext="shape" transform="translate(136.164,-136.063)">
			<title>Text (14).63</title>
			<desc>button/</desc>
			<v:textBlock v:margins="rect(4,4,4,4)" v:tabSpace="42.5197"/>
			<v:textRect cx="42.5197" cy="514.488" width="85.04" height="19.8425"/>
			<rect x="0" y="504.567" width="85.0394" height="19.8425" class="st2"/>
			<text x="15.01" y="519.29" class="st6" v:langID="1033"><v:paragraph v:horizAlign="1"/><v:tabList/>button/</text>		</g>
		<g id="shape64-105" v:mID="64" v:groupContext="shape" transform="translate(168.358,-132.52)">
			<title>Line.64</title>
			<path d="M0 524.41 L14.17 524.41" class="st5"/>
		</g>
		<g id="shape65-109" v:mID="65" v:groupContext="shape" transform="translate(85.1811,-170.079)">
			<title>Line.65</title>
			<path d="M0 524.41 L19.84 524.41" class="st5"/>
		</g>
		<g id="shape66-113" v:mID="66" v:groupContext="shape" transform="translate(609.591,342.992) rotate(90)">
			<title>Line.66</title>
			<path d="M0 524.41 L11.34 524.41" class="st5"/>
		</g>
		<g id="shape67-117" v:mID="67" v:groupContext="shape" transform="translate(692.767,386.929) rotate(90)">
			<title>Line.67</title>
			<path d="M0 524.41 L19.62 524.41" class="st5"/>
		</g>
		<g id="shape68-121" v:mID="68" v:groupContext="shape" transform="translate(175.89,-113.386)">
			<title>Text (14).68</title>
			<desc>button.js</desc>
			<v:textBlock v:margins="rect(4,4,4,4)" v:tabSpace="42.5197"/>
			<v:textRect cx="42.5197" cy="519.449" width="85.04" height="9.92126"/>
			<rect x="0" y="514.488" width="85.0394" height="9.92126" class="st2"/>
			<text x="10.34" y="524.25" class="st6" v:langID="1033"><v:paragraph v:horizAlign="1"/><v:tabList/>button.js</text>		</g>
		<g id="shape69-125" v:mID="69" v:groupContext="shape" transform="translate(182.23,-127.559)">
			<title>Text (14).69</title>
			<desc>button.css</desc>
			<v:textBlock v:margins="rect(4,4,4,4)" v:tabSpace="42.5197"/>
			<v:textRect cx="42.5197" cy="519.449" width="85.04" height="9.92126"/>
			<rect x="0" y="514.488" width="85.0394" height="9.92126" class="st2"/>
			<text x="4.38" y="524.25" class="st6" v:langID="1033"><v:paragraph v:horizAlign="1"/><v:tabList/>button.css</text>		</g>
		<g id="shape70-129" v:mID="70" v:groupContext="shape" transform="translate(168.358,-117.862)">
			<title>Line.70</title>
			<path d="M0 524.41 L14.17 524.41" class="st5"/>
		</g>
		<g id="shape73-133" v:mID="73" v:groupContext="shape" transform="translate(103.483,-240.945)">
			<title>Gray-frame Round Edge.560</title>
			<desc>desktop.blocks/</desc>
			<v:textBlock v:margins="rect(4,4,4,4)" v:tabSpace="42.5197"/>
			<v:textRect cx="72.4067" cy="509.747" width="144.82" height="29.3239"/>
			<rect x="0" y="495.086" width="144.813" height="29.3239" rx="14.662" ry="14.662" class="st8"/>
			<text x="14.84" y="513.75" class="st7" v:langID="1033"><v:paragraph v:spLine="-1" v:horizAlign="1"/><v:tabList/>desktop.blocks/</text>		</g>
		<g id="shape74-138" v:mID="74" v:groupContext="shape" transform="translate(105.024,-327.402)">
			<title>Yellow-frame Round Edge.561</title>
			<desc>common.blocks/</desc>
			<v:textBlock v:margins="rect(4,4,4,4)" v:tabSpace="42.5197"/>
			<v:textRect cx="72.4067" cy="509.747" width="144.82" height="29.3239"/>
			<rect x="0" y="495.086" width="144.813" height="29.3239" rx="14.662" ry="14.662" class="st10"/>
			<text x="11.98" y="513.75" class="st7" v:langID="1033"><v:paragraph v:spLine="-1" v:horizAlign="1"/><v:tabList/>common.blocks/</text>		</g>
		<g id="shape77-142" v:mID="77" v:groupContext="shape" transform="translate(101.942,-155.906)">
			<title>Black-frame Round Edge.562</title>
			<desc>touch.blocks/</desc>
			<v:textBlock v:margins="rect(4,4,4,4)" v:tabSpace="42.5197"/>
			<v:textRect cx="72.4067" cy="509.747" width="144.82" height="29.3239"/>
			<rect x="0" y="495.086" width="144.813" height="29.3239" rx="14.662" ry="14.662" class="st11"/>
			<text x="23.54" y="513.75" class="st7" v:langID="1033"><v:paragraph v:spLine="-1" v:horizAlign="1"/><v:tabList/>touch.blocks/</text>		</g>
		<g id="group87-147" transform="translate(322.441,-198.425)" v:mID="87" v:groupContext="group">
			<title>Notebook.564</title>
			<g id="group88-148" v:mID="88" v:groupContext="group">
				<title>g5</title>
				<g id="shape89-149" v:mID="89" v:groupContext="shape">
					<title>path7</title>
					<path d="M85.66 517.61 L69.34 517.61 L0 517.61 L0 518.97 L0 520.33 C-0 522.57 1.84 524.41 4.08 524.41 L156.36
								 524.41 C158.61 524.41 160.44 522.57 160.44 520.33 L160.44 518.97 L160.44 517.61 L85.66 517.61 Z"
							class="st13"/>
				</g>
				<g id="shape90-151" v:mID="90" v:groupContext="shape" transform="translate(9.51768,-6.79835)">
					<title>path9</title>
					<path d="M133.25 430.59 L8.16 430.59 C3.67 430.59 0 434.26 0 438.75 L0 524.41 L59.83 524.41 L66.62 524.41 L67.98
								 524.41 L76.14 524.41 L141.41 524.41 L141.41 438.75 C141.41 434.26 137.73 430.59 133.25 430.59 Z"
							class="st13"/>
				</g>
				<g id="shape91-153" v:mID="91" v:groupContext="shape" transform="translate(78.8608,-95.1768)">
					<title>circle11</title>
					<path d="M2.72 523.05 C2.72 523.8 2.11 524.41 1.36 524.41 C0.61 524.41 0 523.8 0 523.05 C0 522.3 0.61 521.69
								 1.36 521.69 C2.11 521.69 2.72 522.3 2.72 523.05 Z" class="st14"/>
				</g>
				<g id="group92-155" transform="translate(50.3078,-27.1934)" v:mID="92" v:groupContext="group">
					<title>g13</title>
					<g id="shape93-156" v:mID="93" v:groupContext="shape">
						<title>path15</title>
						<path d="M35.35 499.94 L24.47 499.94 C24.47 483.62 33.99 471.38 33.99 471.38 L4.08 471.38 C1.84 471.38 0
									 473.22 0 475.46 L0 520.33 C-0 522.57 1.84 524.41 4.08 524.41 L35.96 524.41 C32.97 511.76 35.35
									 499.94 35.35 499.94 Z" class="st15"/>
					</g>
					<g id="group94-158" transform="translate(8.15801,0)" v:mID="94" v:groupContext="group">
						<title>g17</title>
						<g id="shape95-159" v:mID="95" v:groupContext="shape" transform="translate(2.51799E-013,-12.237)">
							<title>path19</title>
							<path d="M0 518.97 C-0 518.97 9.52 524.41 21.75 524.41 C33.99 524.41 43.51 518.97 43.51 518.97 L0 518.97
										 Z" class="st16"/>
							<path d="M0 518.97 C-0 518.97 9.52 524.41 21.75 524.41 C33.99 524.41 43.51 518.97 43.51 518.97"
									class="st17"/>
						</g>
						<g id="shape96-162" v:mID="96" v:groupContext="shape" transform="translate(6.79835,-36.7111)">
							<title>line21</title>
							<path d="M0 518.97 L0 524.41 L0 518.97 Z" class="st16"/>
							<path d="M0 518.97 L0 524.41" class="st17"/>
						</g>
						<g id="shape97-165" v:mID="97" v:groupContext="shape" transform="translate(33.9917,-36.7111)">
							<title>line23</title>
							<path d="M0 518.97 L0 524.41 L0 518.97 Z" class="st16"/>
							<path d="M0 518.97 L0 524.41" class="st17"/>
						</g>
						<g id="shape98-168" v:mID="98" v:groupContext="shape" transform="translate(25.8337,0)">
							<title>path27</title>
							<path d="M1.97 524.41 L21.75 524.41 C24 524.41 25.83 522.57 25.83 520.33 L25.83 475.46 C25.83 473.22
										 24 471.38 21.75 471.38 L0 471.38 L1.97 524.41 Z" class="st16"/>
							<path d="M1.97 524.41 L21.75 524.41 C24 524.41 25.83 522.57 25.83 520.33 L25.83 475.46 C25.83 473.22
										 24 471.38 21.75 471.38 L0 471.38" class="st17"/>
						</g>
					</g>
				</g>
				<g id="shape99-171" v:mID="99" v:groupContext="shape" transform="translate(16.316,-13.5967)">
					<title>rect29</title>
					<rect x="0" y="445.549" width="127.809" height="78.8608" class="st18"/>
				</g>
			</g>
		</g>
		<g id="group100-173" transform="translate(524.445,-141.732)" v:mID="100" v:groupContext="group">
			<title>iPhone.565</title>
			<g id="group101-174" v:mID="101" v:groupContext="group">
				<title>Sheet.101</title>
				<g id="group102-175" v:mID="102" v:groupContext="group">
					<title>Sheet.102</title>
					<g id="shape103-176" v:mID="103" v:groupContext="shape" transform="translate(1.00616,-1.00616)">
						<title>Sheet.103</title>
						<path d="M5.03 524.41 C2.26 524.41 0 522.15 0 519.38 L0 430.84 C0 428.07 2.26 425.81 5.03 425.81 L41.25 425.81
									 C44.02 425.81 46.28 428.07 46.28 430.84 L46.28 519.38 C46.28 522.15 44.02 524.41 41.25 524.41
									 L5.03 524.41 Z" class="st19"/>
					</g>
					<g id="shape104-178" v:mID="104" v:groupContext="shape">
						<title>Sheet.104</title>
						<path d="M42.26 425.81 C44.47 425.81 46.28 427.62 46.28 429.83 L46.28 518.37 C46.28 520.59 44.47 522.4 42.26
									 522.4 L6.04 522.4 C3.82 522.4 2.01 520.59 2.01 518.37 L2.01 429.83 C2.01 427.62 3.82 425.81
									 6.04 425.81 L42.26 425.81 ZM42.26 423.79 L6.04 423.79 C2.72 423.79 0 426.51 0 429.83 L0 518.37
									 C-0 521.69 2.72 524.41 6.04 524.41 L42.26 524.41 C45.58 524.41 48.3 521.69 48.3 518.37 L48.3
									 429.83 C48.3 426.51 45.58 423.79 42.26 423.79 Z" class="st20"/>
					</g>
				</g>
				<g id="group105-180" transform="translate(4.02462,-14.0862)" v:mID="105" v:groupContext="group">
					<title>Sheet.105</title>
					<g id="shape106-181" v:mID="106" v:groupContext="shape" transform="translate(1.00616,-1.00616)">
						<title>Sheet.106</title>
						<rect x="0" y="453.979" width="38.2339" height="70.4309" class="st21"/>
					</g>
					<g id="shape107-183" v:mID="107" v:groupContext="shape">
						<title>Sheet.107</title>
						<path d="M38.23 453.98 L38.23 522.4 L2.01 522.4 L2.01 453.98 L38.23 453.98 ZM39.24 451.97 L1.01 451.97 C0.45
									 451.97 0 452.42 0 452.97 L0 523.4 C0 523.96 0.45 524.41 1.01 524.41 L39.24 524.41 C39.79 524.41
									 40.25 523.96 40.25 523.4 L40.25 452.97 C40.25 452.42 39.79 451.97 39.24 451.97 Z" class="st20"/>
					</g>
				</g>
				<g id="shape108-185" v:mID="108" v:groupContext="shape" transform="translate(21.1293,-5.03078)">
					<title>Sheet.108</title>
					<ellipse cx="3.01847" cy="521.391" rx="3.01847" ry="3.01847" class="st13"/>
				</g>
				<g id="shape109-187" v:mID="109" v:groupContext="shape" transform="translate(27.1662,958.265) rotate(180)">
					<title>Sheet.109</title>
					<path d="M0 524.41 L6.04 524.41" class="st17"/>
				</g>
				<g id="shape110-190" v:mID="110" v:groupContext="shape" transform="translate(18.1108,-90.554)">
					<title>Sheet.110</title>
				</g>
				<g id="shape111-191" v:mID="111" v:groupContext="shape" transform="translate(24.1477,-94.5786)">
					<title>Sheet.111</title>
				</g>
			</g>
		</g>
		<g id="shape112-192" v:mID="112" v:groupContext="shape" transform="translate(245.449,-169.409) rotate(-0.137798)">
			<title>Basic Arrow 1.545</title>
			<path d="M0 524.41 L277.74 524.41" class="st22"/>
		</g>
		<g id="shape113-199" v:mID="113" v:groupContext="shape" transform="translate(243.869,-254.536) rotate(-0.38663)">
			<title>Gray Arrow 1.566</title>
			<path d="M0 524.41 L84.55 524.41" class="st24"/>
		</g>
		<g id="shape115-206" v:mID="115" v:groupContext="shape" transform="translate(927.071,184.252) rotate(90)">
			<title>Yellow Arrow 1.568</title>
			<path d="M0 524.41 L41.12 524.41" class="st26"/>
		</g>
		<g id="shape116-213" v:mID="116" v:groupContext="shape" transform="translate(1073.47,184.252) rotate(90)">
			<title>Yellow Arrow 1.568.116</title>
			<path d="M0 524.41 L97.81 524.41" class="st26"/>
		</g>
		<g id="shape117-219" v:mID="117" v:groupContext="shape" transform="translate(251.393,-340.155) rotate(0.173772)">
			<title>Line.544.117</title>
			<path d="M0 524.41 L299.26 524.41" class="st28"/>
		</g>
	</g>
</svg>
