<?xml version="1.0" encoding="UTF-8" standalone="no"?>
<svg width="739px" height="416px" viewBox="0 0 739 416" version="1.1" xmlns="http://www.w3.org/2000/svg" xmlns:xlink="http://www.w3.org/1999/xlink">
    <!-- Generator: Sketch 40.2 (33826) - http://www.bohemiancoding.com/sketch -->
    <title>build__declaration</title>
    <desc>Created with Sketch.</desc>
    <defs></defs>
    <g id="Page-1" stroke="none" stroke-width="1" fill="none" fill-rule="evenodd">
        <g id="build__declaration" transform="translate(0.000000, -2.000000)">
            <g id="Group">
                <g transform="translate(0.000000, 151.000000)">
                    <g id="popup/" transform="translate(107.000000, 225.000000)" font-size="16" fill="#000000" font-weight="normal">
                        <text>
                            <tspan x="0" y="15">popup/</tspan>
                        </text>
                    </g>
                    <g id="langswitch/" transform="translate(106.000000, 210.000000)" font-size="16" fill="#FF6666" font-weight="normal">
                        <text>
                            <tspan x="0.4" y="15">langswitch/</tspan>
                        </text>
                    </g>
                    <g id="image/" transform="translate(107.000000, 195.000000)" font-size="16" fill="#000000" font-weight="normal">
                        <text>
                            <tspan x="0" y="15">image/</tspan>
                        </text>
                    </g>
                    <g id="icon/" transform="translate(107.000000, 180.000000)" font-size="16" fill="#000000" font-weight="normal">
                        <text>
                            <tspan x="0" y="15">icon/</tspan>
                        </text>
                    </g>
                    <g id="input/" transform="translate(107.000000, 165.000000)" font-size="16" fill="#FF6666" font-weight="normal">
                        <g id="Group">
                            <text id="input/">
                                <tspan x="0.4" y="15">input/</tspan>
                            </text>
                        </g>
                    </g>
                    <g id="button/" transform="translate(107.000000, 150.000000)" font-size="16" fill="#FF6666" font-weight="normal">
                        <g id="Group">
                            <text id="button/">
                                <tspan x="0.4" y="15">button/</tspan>
                            </text>
                        </g>
                    </g>
                    <path d="M73,151.5 L73,235.5 L73,236 L73.5,236 L73.5,235.5 L73.5,151.5 L73.5,151 L73,151 L73,151.5 Z M74.5,236.5 L103.5,236.5 L104,236.5 L104,236 L103.5,236 L74.5,236 L74,236 L74,236.5 L74.5,236.5 Z M74.5,220.5 L103.5,220.5 L104,220.5 L104,220 L103.5,220 L74.5,220 L74,220 L74,220.5 L74.5,220.5 Z M74.5,205.5 L103.5,205.5 L104,205.5 L104,205 L103.5,205 L74.5,205 L74,205 L74,205.5 L74.5,205.5 Z M74.5,190.5 L103.5,190.5 L104,190.5 L104,190 L103.5,190 L74.5,190 L74,190 L74,190.5 L74.5,190.5 Z M74.5,175.5 L103.5,175.5 L104,175.5 L104,175 L103.5,175 L74.5,175 L74,175 L74,175.5 L74.5,175.5 Z M74.5,160.5 L103.5,160.5 L104,160.5 L104,160 L103.5,160 L74.5,160 L74,160 L74,160.5 L74.5,160.5 Z" id="Combined-Shape" stroke="#000000" stroke-linecap="square"></path>
                    <g id="└──lib/" transform="translate(39.000000, 134.000000)">
                        <text id="lib/" fill="#000000" font-size="16" font-weight="normal">
                            <tspan x="49" y="16">lib/</tspan>
                        </text>
                        <path d="M1.5,11.5 L45.5,11.5 L46,11.5 L46,11 L45.5,11 L1.5,11 L1,11 L1,11.5 L1.5,11.5 Z M0,0.5 L0,10.5 L0,11 L0.5,11 L0.5,10.5 L0.5,0.5 L0.5,0 L0,0 L0,0.5 Z" id="Combined-Shape" stroke="#000000" stroke-linecap="square"></path>
                    </g>
                    <g id="link/" transform="translate(108.000000, 120.000000)" font-size="16" fill="#000000" font-weight="normal">
                        <text>
                            <tspan x="0" y="15">link/</tspan>
                        </text>
                    </g>
                    <g id="icon/" transform="translate(108.000000, 105.000000)" font-size="16" fill="#000000" font-weight="normal">
                        <text>
                            <tspan x="0" y="15">icon/</tspan>
                        </text>
                    </g>
                    <g id="logo/" transform="translate(107.000000, 89.000000)" font-size="16" fill="#FF6666" font-weight="normal">
                        <g id="Group">
                            <text id="logo/">
                                <tspan x="0.4" y="15">logo/</tspan>
                            </text>
                        </g>
                    </g>
                    <g id="input/" transform="translate(107.000000, 75.000000)" font-size="16" fill="#FF6666" font-weight="normal">
                        <g id="Group">
                            <text id="input/">
                                <tspan x="0.4" y="15">input/</tspan>
                            </text>
                        </g>
                    </g>
                    <g id="button/" transform="translate(107.000000, 60.000000)" font-size="16" fill="#FF6666" font-weight="normal">
                        <text>
                            <tspan x="0.4" y="15">button/</tspan>
                        </text>
                    </g>
                    <path d="M73,61.4058824 L73,129.594118 L73,130 L73.5,130 L73.5,129.594118 L73.5,61.4058824 L73.5,61 L73,61 L73,61.4058824 Z M74.5,130.5 L103.5,130.5 L104,130.5 L104,130 L103.5,130 L74.5,130 L74,130 L74,130.5 L74.5,130.5 Z M74.5,114.5 L103.5,114.5 L104,114.5 L104,114 L103.5,114 L74.5,114 L74,114 L74,114.5 L74.5,114.5 Z M74.5,99.5 L103.5,99.5 L104,99.5 L104,99 L103.5,99 L74.5,99 L74,99 L74,99.5 L74.5,99.5 Z M74.5,84.5 L103.5,84.5 L104,84.5 L104,84 L103.5,84 L74.5,84 L74,84 L74,84.5 L74.5,84.5 Z M74.5,69.5 L103.5,69.5 L104,69.5 L104,69 L103.5,69 L74.5,69 L74,69 L74,69.5 L74.5,69.5 Z" id="Combined-Shape" stroke="#000000" stroke-linecap="square"></path>
                    <g id="└──blocks/" transform="translate(39.000000, 44.000000)">
                        <text id="blocks/" fill="#000000" font-size="16" font-weight="normal">
                            <tspan x="49" y="16">blocks/</tspan>
                        </text>
                        <path d="M1.5,11.5 L45.5,11.5 L46,11.5 L46,11 L45.5,11 L1.5,11 L1,11 L1,11.5 L1.5,11.5 Z M0,0.5 L0,10.5 L0,11 L0.5,11 L0.5,10.5 L0.5,0.5 L0.5,0 L0,0 L0,0.5 Z" id="Combined-Shape" stroke="#000000" stroke-linecap="square"></path>
                    </g>
                    <g id="project/" transform="translate(1.000000, 30.000000)" font-size="16" fill="#000000" font-weight="normal">
                        <g id="Group">
                            <text id="project/">
                                <tspan x="0" y="15">project/</tspan>
                            </text>
                        </g>
                    </g>
                    <g id="Source-files" font-size="16" fill="#333333" font-weight="bold">
                        <text>
                            <tspan x="0" y="15">Source files</tspan>
                        </text>
                    </g>
                </g>
                <path d="M197,221 L228,221 L228,222 L197,222 L197,221 L197,221 L197,221 Z M233,221.5 L228,224 L228,219 L233,221.5 L233,221.5 L233,221.5 Z M197,236 L228,236 L228,237 L197,237 L197,236 L197,236 L197,236 Z M233,236.5 L228,239 L228,234 L233,236.5 L233,236.5 L233,236.5 Z M197,251 L228,251 L228,252 L197,252 L197,251 L197,251 L197,251 Z M233,251.5 L228,254 L228,249 L233,251.5 L233,251.5 L233,251.5 Z M197,311 L228,311 L228,312 L197,312 L197,311 L197,311 L197,311 Z M233,311.5 L228,314 L228,309 L233,311.5 L233,311.5 L233,311.5 Z M197,326 L228,326 L228,327 L197,327 L197,326 L197,326 L197,326 Z M233,326.5 L228,329 L228,324 L233,326.5 L233,326.5 L233,326.5 Z M197,371 L228,371 L228,372 L197,372 L197,371 L197,371 L197,371 Z M233,371.5 L228,374 L228,369 L233,371.5 L233,371.5 L233,371.5 Z" id="Shape" fill="#FF6666"></path>
                <g id="Declaration" transform="translate(254.000000, 0.000000)" font-size="16" fill="#333333" font-weight="bold">
                    <g id="Group">
                        <text id="Declaration">
                            <tspan x="0.411" y="15">Declaration</tspan>
                        </text>
                    </g>
                </g>
                <path d="M188,128 L186.99,128 C185.34,128 184,123.778 184,118.6 L184,43.4 C184,38.209 185.343,34 186.997,34 L188,34" id="Shape" stroke-opacity="0.8" stroke="#000000"></path>
                <path d="M409,128 L410.01,128 C411.66,128 413,123.778 413,118.6 L413,43.4 C413,38.209 411.657,34 410.003,34 L409,34" id="Shape" stroke-opacity="0.8" stroke="#000000"></path>
                <g transform="translate(198.000000, 32.000000)" font-size="16" font-weight="normal">
                    <g id="];" transform="translate(0.000000, 75.000000)" fill="#000000">
                        <g id="Group">
                            <text id="];">
                                <tspan x="0" y="15">];</tspan>
                            </text>
                        </g>
                    </g>
                    <g id="}" transform="translate(195.000000, 60.000000)" fill="#000000">
                        <g id="Group">
                            <text id="}">
                                <tspan x="0.8" y="15">}</tspan>
                            </text>
                        </g>
                    </g>
                    <g id="&quot;langswitch&quot;" transform="translate(103.000000, 60.000000)" fill="#FF6666">
                        <g id="Group">
                            <text id="&quot;langswitch&quot;">
                                <tspan x="0" y="15">"langswitch"</tspan>
                            </text>
                        </g>
                    </g>
                    <g id=":" transform="translate(95.000000, 60.000000)" fill="#000000">
                        <g id="Group">
                            <text id=":">
                                <tspan x="0" y="15">:</tspan>
                            </text>
                        </g>
                    </g>
                    <g id="&quot;name&quot;" transform="translate(41.000000, 60.000000)" fill="#FF6666">
                        <g id="Group">
                            <text id="&quot;name&quot;">
                                <tspan x="0" y="15">"name"</tspan>
                            </text>
                        </g>
                    </g>
                    <g id="{" transform="translate(26.000000, 60.000000)" fill="#000000">
                        <g id="Group">
                            <text id="{">
                                <tspan x="0" y="15">{</tspan>
                            </text>
                        </g>
                    </g>
                    <g id="}," transform="translate(155.000000, 45.000000)" fill="#000000">
                        <g id="Group">
                            <text id="},">
                                <tspan x="0.8" y="15">},</tspan>
                            </text>
                        </g>
                    </g>
                    <g id="&quot;input&quot;" transform="translate(103.000000, 45.000000)" fill="#FF6666">
                        <g id="Group">
                            <text id="&quot;input&quot;">
                                <tspan x="0" y="15">"input"</tspan>
                            </text>
                        </g>
                    </g>
                    <g id=":" transform="translate(95.000000, 45.000000)" fill="#000000">
                        <g id="Group">
                            <text id=":">
                                <tspan x="0" y="15">:</tspan>
                            </text>
                        </g>
                    </g>
                    <g id="&quot;name&quot;" transform="translate(41.000000, 45.000000)" fill="#FF6666">
                        <g id="Group">
                            <text id="&quot;name&quot;">
                                <tspan x="0" y="15">"name"</tspan>
                            </text>
                        </g>
                    </g>
                    <g id="{" transform="translate(26.000000, 45.000000)" fill="#000000">
                        <g id="Group">
                            <text id="{">
                                <tspan x="0" y="15">{</tspan>
                            </text>
                        </g>
                    </g>
                    <g id="}," transform="translate(150.000000, 30.000000)" fill="#000000">
                        <g id="Group">
                            <text id="},">
                                <tspan x="0.8" y="15">},</tspan>
                            </text>
                        </g>
                    </g>
                    <g id="&quot;logo&quot;" transform="translate(103.000000, 30.000000)" fill="#FF6666">
                        <g id="Group">
                            <text id="&quot;logo&quot;">
                                <tspan x="0" y="15">"logo"</tspan>
                            </text>
                        </g>
                    </g>
                    <g id=":" transform="translate(95.000000, 30.000000)" fill="#000000">
                        <g id="Group">
                            <text id=":">
                                <tspan x="0" y="15">:</tspan>
                            </text>
                        </g>
                    </g>
                    <g id="&quot;name&quot;" transform="translate(41.000000, 30.000000)" fill="#FF6666">
                        <g id="Group">
                            <text id="&quot;name&quot;">
                                <tspan x="0" y="15">"name"</tspan>
                            </text>
                        </g>
                    </g>
                    <g id="{" transform="translate(26.000000, 30.000000)" fill="#000000">
                        <g id="Group">
                            <text id="{">
                                <tspan x="0" y="15">{</tspan>
                            </text>
                        </g>
                    </g>
                    <g id="}," transform="translate(164.000000, 15.000000)" fill="#000000">
                        <g id="Group">
                            <text id="},">
                                <tspan x="0.8" y="15">},</tspan>
                            </text>
                        </g>
                    </g>
                    <g id="&quot;button&quot;" transform="translate(103.000000, 15.000000)" fill="#FF6666">
                        <g id="Group">
                            <text id="&quot;button&quot;">
                                <tspan x="0" y="15">"button"</tspan>
                            </text>
                        </g>
                    </g>
                    <g id=":" transform="translate(95.000000, 15.000000)" fill="#000000">
                        <g id="Group">
                            <text id=":">
                                <tspan x="0" y="15">:</tspan>
                            </text>
                        </g>
                    </g>
                    <g id="&quot;name&quot;" transform="translate(41.000000, 15.000000)" fill="#FF6666">
                        <g id="Group">
                            <text id="&quot;name&quot;">
                                <tspan x="0" y="15">"name"</tspan>
                            </text>
                        </g>
                    </g>
                    <g id="{" transform="translate(26.000000, 15.000000)" fill="#000000">
                        <g id="Group">
                            <text id="{">
                                <tspan x="0" y="15">{</tspan>
                            </text>
                        </g>
                    </g>
                    <g id="=-[" transform="translate(117.000000, 0.000000)" fill="#000000">
                        <g id="Group">
                            <text id="=-[">
                                <tspan x="0" y="15">= [</tspan>
                            </text>
                        </g>
                    </g>
                    <g id="exports.blocks" fill="#008080">
                        <text>
                            <tspan x="0" y="15">exports.blocks</tspan>
                        </text>
                    </g>
                </g>
                <path d="M299,140 L299,171 L298,171 L298,140 L299,140 L299,140 L299,140 Z M298.5,176 L296,171 L301,171 L298.5,176 L298.5,176 L298.5,176 Z" id="Shape" fill="#FF6666"></path>
                <rect id="Rectangle-path" stroke-opacity="0.2" stroke="#000000" fill-opacity="0.05" fill="#000000" x="249" y="187" width="100" height="230" rx="3"></rect>
                <rect id="Rectangle-path" stroke="#FFFFFF" x="249" y="187" width="100" height="230" rx="3"></rect>
                <g id="Build" transform="translate(281.500000, 291.000000)" font-size="16" fill="#333333" font-weight="bold">
                    <g id="Group">
                        <text id="Build">
                            <tspan x="0.434" y="15.541">Build</tspan>
                        </text>
                    </g>
                </g>
                <polygon id="Shape" stroke-opacity="0.1" stroke="#000000" fill="#F6F5F3" points="431 219 738 219 738 396 431 396"></polygon>
                <g transform="translate(442.000000, 229.000000)" font-size="16" font-weight="normal">
                    <g id="@import" fill="#A71D5D">
                        <text>
                            <tspan x="0" y="15">@import</tspan>
                        </text>
                    </g>
                    <g id="“lib/button/button.css”" transform="translate(71.000000, 0.000000)" fill="#183691">
                        <g id="Group">
                            <text id="“lib/button/button.css”">
                                <tspan x="0.4" y="15">“lib/button/button.css”</tspan>
                            </text>
                        </g>
                    </g>
                    <g id=";" transform="translate(216.000000, 0.000000)" fill="#333333">
                        <g id="Group">
                            <text id=";">
                                <tspan x="0.8" y="15">;</tspan>
                            </text>
                        </g>
                    </g>
                    <g id="@import" transform="translate(0.000000, 15.000000)" fill="#A71D5D">
                        <g id="Group">
                            <text id="@import">
                                <tspan x="0" y="15">@import</tspan>
                            </text>
                        </g>
                    </g>
                    <g id="“blocks/button/button.css”" transform="translate(71.000000, 15.000000)" fill="#183691">
                        <g id="Group">
                            <text id="“blocks/button/button.css”">
                                <tspan x="0.4" y="15">“blocks/button/button.css”</tspan>
                            </text>
                        </g>
                    </g>
                    <g id=";" transform="translate(246.000000, 15.000000)" fill="#333333">
                        <g id="Group">
                            <text id=";">
                                <tspan x="0.2" y="15">;</tspan>
                            </text>
                        </g>
                    </g>
                    <g id="@import" transform="translate(0.000000, 45.000000)" fill="#A71D5D">
                        <g id="Group">
                            <text id="@import">
                                <tspan x="0" y="15">@import</tspan>
                            </text>
                        </g>
                    </g>
                    <g id="“lib/input/input.css”" transform="translate(71.000000, 45.000000)" fill="#183691">
                        <g id="Group">
                            <text id="“lib/input/input.css”">
                                <tspan x="0.4" y="15">“lib/input/input.css”</tspan>
                            </text>
                        </g>
                    </g>
                    <g id=";" transform="translate(197.000000, 45.000000)" fill="#333333">
                        <g id="Group">
                            <text id=";">
                                <tspan x="0.2" y="15">;</tspan>
                            </text>
                        </g>
                    </g>
                    <g id="@import" transform="translate(0.000000, 60.000000)" fill="#A71D5D">
                        <g id="Group">
                            <text id="@import">
                                <tspan x="0" y="15">@import</tspan>
                            </text>
                        </g>
                    </g>
                    <g id="“blocks/input/input.css”" transform="translate(71.000000, 60.000000)" fill="#183691">
                        <g id="Group">
                            <text id="“blocks/input/input.css”">
                                <tspan x="0.4" y="15">“blocks/input/input.css”</tspan>
                            </text>
                        </g>
                    </g>
                    <g id=";" transform="translate(226.000000, 60.000000)" fill="#333333">
                        <g id="Group">
                            <text id=";">
                                <tspan x="0.6" y="15">;</tspan>
                            </text>
                        </g>
                    </g>
                    <g id="@import" transform="translate(0.000000, 90.000000)" fill="#A71D5D">
                        <g id="Group">
                            <text id="@import">
                                <tspan x="0" y="15">@import</tspan>
                            </text>
                        </g>
                    </g>
                    <g id="“lib/langswitch/" transform="translate(71.000000, 90.000000)" fill="#183691">
                        <g id="Group">
                            <text id="“lib/langswitch/">
                                <tspan x="0.4" y="15">“lib/langswitch/</tspan>
                            </text>
                        </g>
                    </g>
                    <g id="langswitch.css”" transform="translate(176.000000, 90.000000)" fill="#183691">
                        <g id="Group">
                            <text id="langswitch.css”">
                                <tspan x="0" y="15">langswitch.css”</tspan>
                            </text>
                        </g>
                    </g>
                    <g id=";" transform="translate(277.000000, 89.000000)" fill="#333333">
                        <g id="Group">
                            <text id=";">
                                <tspan x="0" y="15">;</tspan>
                            </text>
                        </g>
                    </g>
                    <g id="@import" transform="translate(0.000000, 120.000000)" fill="#A71D5D">
                        <g id="Group">
                            <text id="@import">
                                <tspan x="0" y="15">@import</tspan>
                            </text>
                        </g>
                    </g>
                    <g id="“blocks/logo/logo.css”" transform="translate(71.000000, 120.000000)" fill="#183691">
                        <g id="Group">
                            <text id="“blocks/logo/logo.css”">
                                <tspan x="0.4" y="15">“blocks/logo/logo.css”</tspan>
                            </text>
                        </g>
                    </g>
                    <g id=";" transform="translate(217.000000, 120.000000)" fill="#333333">
                        <g id="Group">
                            <text id=";">
                                <tspan x="0" y="15">;</tspan>
                            </text>
                        </g>
                    </g>
                </g>
                <g id="project.css" transform="translate(541.000000, 187.000000)" font-size="16" fill="#333333" font-weight="bold">
                    <text>
                        <tspan x="0.411" y="15">project.css</tspan>
                    </text>
                </g>
                <g id="Shape" transform="translate(370.000000, 300.000000)" fill="#FF6666">
                    <path d="M0,2 L31,2 L31,3 L0,3 L0,2 L0,2 L0,2 Z M36,2.5 L31,5 L31,0 L36,2.5 L36,2.5 L36,2.5 Z"></path>
                </g>
            </g>
        </g>
    </g>
</svg>
