<svg width="734" height="413" viewBox="0 0 734 413" xmlns="http://www.w3.org/2000/svg"><title>build__declaration</title><g transform="translate(0 -3)" fill="none" fill-rule="evenodd"><g font-size="13"><text transform="translate(65 376)" fill="#000"><tspan x="0" y="13">└──popup/</tspan></text><text transform="translate(65 360)" fill="#000"><tspan x="0" y="14">├</tspan> <tspan x="13" y="14">──</tspan></text><text transform="translate(104 361)" fill="#F66"><tspan x=".4" y="13">langswitch/</tspan></text><text transform="translate(65 345)" fill="#000"><tspan x="0" y="14">├</tspan> <tspan x="13" y="14">──image/</tspan></text><text transform="translate(65 330)" fill="#000"><tspan x="0" y="14">├</tspan> <tspan x="13" y="14">──icon/</tspan></text><text transform="translate(65 315)" fill="#000"><tspan x="0" y="14">├</tspan> <tspan x="13" y="14">──</tspan></text><text transform="translate(104 316)" fill="#F66"><tspan x=".4" y="13">input/</tspan></text><text transform="translate(65 300)" fill="#000"><tspan x="0" y="14">├</tspan> <tspan x="13" y="14">──</tspan></text><text transform="translate(104 301)" fill="#F66"><tspan x=".4" y="13">button/</tspan></text><text transform="translate(33 286)" fill="#000"><tspan x="0" y="13">└──lib/</tspan></text><text transform="translate(65 271)" fill="#000"><tspan x="0" y="13">└──link/</tspan></text><text transform="translate(65 255)" fill="#000"><tspan x="0" y="14">├</tspan> <tspan x="13" y="14">──icon/</tspan></text><text transform="translate(65 240)" fill="#000"><tspan x="0" y="14">├</tspan> <tspan x="13" y="14">──</tspan></text><text transform="translate(104 240)" fill="#F66"><tspan x=".4" y="13">logo/</tspan></text><text transform="translate(65 225)" fill="#000"><tspan x="0" y="14">├</tspan> <tspan x="13" y="14">──</tspan></text><text transform="translate(104 226)" fill="#F66"><tspan x=".4" y="13">input/</tspan></text><text transform="translate(65 210)" fill="#000"><tspan x="0" y="14">├</tspan> <tspan x="13" y="14">──</tspan></text><text transform="translate(104 211)" fill="#F66"><tspan x=".4" y="13">button/</tspan></text><text transform="translate(33 196)" fill="#000"><tspan x="0" y="13">└──blocks/</tspan></text><text transform="translate(1 181)" fill="#000"><tspan x="0" y="13">project/</tspan></text><text transform="translate(0 151)" fill="#333" font-weight="bold"><tspan x="0" y="13">Source files</tspan></text></g><path d="M192 219h31v1h-31v-1zm36 .5l-5 2.5v-5l5 2.5zM192 234h31v1h-31v-1zm36 .5l-5 2.5v-5l5 2.5zM192 249h31v1h-31v-1zm36 .5l-5 2.5v-5l5 2.5zM192 309h31v1h-31v-1zm36 .5l-5 2.5v-5l5 2.5zM192 324h31v1h-31v-1zm36 .5l-5 2.5v-5l5 2.5zM192 369h31v1h-31v-1zm36 .5l-5 2.5v-5l5 2.5z" fill="#F66"/><text transform="translate(263)" font-size="13" fill="#333" font-weight="bold"><tspan x=".411" y="13">Declaration</tspan></text><path d="M194 126h-1.01c-1.65 0-2.99-4.222-2.99-9.4V41.4c0-5.191 1.343-9.4 2.997-9.4H194" stroke-opacity=".8" stroke="#000"/><path d="M177 126h-1.01c-1.65 0-2.99-4.222-2.99-9.4V41.4c0-5.191 1.343-9.4 2.997-9.4H177"/><path d="M403 126h1.01c1.65 0 2.99-4.222 2.99-9.4V41.4c0-5.191-1.343-9.4-2.997-9.4H403" stroke-opacity=".8" stroke="#000"/><path d="M425 126h-1.01c-1.65 0-2.99-4.222-2.99-9.4V41.4c0-5.191 1.343-9.4 2.997-9.4H425"/><g font-size="13"><text transform="translate(204 107)" fill="#000"><tspan x="0" y="13">];</tspan></text><text transform="translate(382 92)" fill="#000"><tspan x=".8" y="13">}</tspan></text><text transform="translate(307 92)" fill="#F66"><tspan x="0" y="13">&quot;langswitch&quot;</tspan></text><text transform="translate(292 92)" fill="#000"><tspan x="0" y="13">:</tspan></text><text transform="translate(245 92)" fill="#F66"><tspan x="0" y="13">&quot;name&quot;</tspan></text><text transform="translate(230 92)" fill="#000"><tspan x="0" y="13">{</tspan></text><text transform="translate(350 77)" fill="#000"><tspan x=".8" y="13">},</tspan></text><text transform="translate(307 77)" fill="#F66"><tspan x="0" y="13">&quot;input&quot;</tspan></text><text transform="translate(292 77)" fill="#000"><tspan x="0" y="13">:</tspan></text><text transform="translate(245 77)" fill="#F66"><tspan x="0" y="13">&quot;name&quot;</tspan></text><text transform="translate(230 77)" fill="#000"><tspan x="0" y="13">{</tspan></text><text transform="translate(346 62)" fill="#000"><tspan x=".8" y="13">},</tspan></text><text transform="translate(307 62)" fill="#F66"><tspan x="0" y="13">&quot;logo&quot;</tspan></text><text transform="translate(292 62)" fill="#000"><tspan x="0" y="13">:</tspan></text><text transform="translate(245 62)" fill="#F66"><tspan x="0" y="13">&quot;name&quot;</tspan></text><text transform="translate(230 62)" fill="#000"><tspan x="0" y="13">{</tspan></text><text transform="translate(358 47)" fill="#000"><tspan x=".8" y="13">},</tspan></text><text transform="translate(307 47)" fill="#F66"><tspan x="0" y="13">&quot;button&quot;</tspan></text><text transform="translate(292 47)" fill="#000"><tspan x="0" y="13">:</tspan></text><text transform="translate(245 47)" fill="#F66"><tspan x="0" y="13">&quot;name&quot;</tspan></text><text transform="translate(230 47)" fill="#000"><tspan x="0" y="13">{</tspan></text><g fill="#000"><text transform="translate(321 32)"><tspan x="0" y="13">= [</tspan></text></g><g fill="teal"><text transform="translate(204 32)"><tspan x="0" y="13">exports.blocks</tspan></text></g></g><path d="M299 138v31h-1v-31h1zm-.5 36l-2.5-5h5l-2.5 5z" fill="#F66"/><rect stroke-opacity=".2" stroke="#000" fill-opacity=".05" fill="#000" x="249" y="185" width="100" height="230" rx="3"/><rect stroke="#FFF" x="249" y="185" width="100" height="230" rx="3"/><text transform="translate(281.5 291)" font-size="13" fill="#333" font-weight="bold"><tspan x=".434" y="13.541">Build</tspan></text><path stroke-opacity=".1" stroke="#000" fill="#F6F5F3" d="M426 217h307v181H426z"/><g font-size="13"><text transform="translate(442 229)" fill="#A71D5D"><tspan x="0" y="13">@import</tspan></text><text transform="translate(504 229)" fill="#183691"><tspan x=".4" y="13">“lib/button/button.css”</tspan></text><text transform="translate(629 229)" fill="#333"><tspan x=".8" y="13">;</tspan></text><text transform="translate(442 244)" fill="#A71D5D"><tspan x="0" y="13">@import</tspan></text><text transform="translate(504 244)" fill="#183691"><tspan x=".4" y="13">“blocks/button/button.css”</tspan></text><text transform="translate(654 244)" fill="#333"><tspan x=".2" y="13">;</tspan></text><text transform="translate(442 274)" fill="#A71D5D"><tspan x="0" y="13">@import</tspan></text><text transform="translate(504 274)" fill="#183691"><tspan x=".4" y="13">“lib/input/input.css”</tspan></text><text transform="translate(614 274)" fill="#333"><tspan x=".2" y="13">;</tspan></text><text transform="translate(442 289)" fill="#A71D5D"><tspan x="0" y="13">@import</tspan></text><text transform="translate(504 289)" fill="#183691"><tspan x=".4" y="13">“blocks/input/input.css”</tspan></text><text transform="translate(637 289)" fill="#333"><tspan x=".6" y="13">;</tspan></text><text transform="translate(442 319)" fill="#A71D5D"><tspan x="0" y="13">@import</tspan></text><text transform="translate(504 319)" fill="#183691"><tspan x=".4" y="13">“lib/langswitch/</tspan></text><text transform="translate(590 319)" fill="#183691"><tspan x="0" y="13">langswitch.css”</tspan></text><text transform="translate(680 318)" fill="#333"><tspan x="0" y="13">;</tspan></text><text transform="translate(442 349)" fill="#A71D5D"><tspan x="0" y="13">@import</tspan></text><text transform="translate(504 349)" fill="#183691"><tspan x=".4" y="13">“blocks/logo/logo.css”</tspan></text><text transform="translate(631 349)" fill="#333"><tspan x="0" y="13">;</tspan></text></g><text transform="translate(544 187)" font-size="13" fill="#333" font-weight="bold"><tspan x=".411" y="13">project.css</tspan></text><g fill="#F66"><path d="M370 300h31v1h-31v-1zm36 .5l-5 2.5v-5l5 2.5z"/></g></g></svg>